<?xml version="1.0" encoding="utf-8"?>
<!-- Generator: Adobe Illustrator 24.1.1, SVG Export Plug-In . SVG Version: 6.00 Build 0)  -->
<svg version="1.1" xmlns="http://www.w3.org/2000/svg" xmlns:xlink="http://www.w3.org/1999/xlink" x="0px" y="0px"
	 viewBox="0 0 350 150" style="enable-background:new 0 0 350 150;" xml:space="preserve">
<style type="text/css">
	.st0{display:none;}
	.st1{display:inline;}
	.st2{display:inline;fill:none;stroke:#454650;stroke-width:0.4698;stroke-miterlimit:10;}
	.st3{clip-path:url(#SVGID_2_);}
	.st4{opacity:0.51;fill:url(#SVGID_3_);enable-background:new    ;}
	.st5{fill:none;stroke:url(#SVGID_4_);stroke-width:2;stroke-miterlimit:10;}
	.st6{display:none;clip-path:url(#SVGID_6_);}
	.st7{display:inline;fill:url(#SVGID_7_);}
	.st8{display:inline;fill:none;stroke:url(#SVGID_8_);stroke-width:1.7938;stroke-miterlimit:10;}
	.st9{display:none;clip-path:url(#SVGID_10_);}
	.st10{display:inline;opacity:0.58;fill:url(#SVGID_11_);enable-background:new    ;}
	.st11{display:inline;fill:none;stroke:url(#SVGID_12_);stroke-width:1.7938;stroke-miterlimit:10;}
	.st12{display:none;clip-path:url(#SVGID_14_);fill:url(#SVGID_15_);}
	.st13{display:none;clip-path:url(#SVGID_17_);fill:url(#SVGID_18_);}
	.st14{display:none;clip-path:url(#SVGID_20_);fill:url(#SVGID_21_);}
	.st15{opacity:0.51;fill:url(#SVGID_22_);enable-background:new    ;}
	.st16{fill:none;stroke:url(#SVGID_23_);stroke-width:2;stroke-miterlimit:10;}
	.st17{display:inline;fill:none;}
	.st18{fill:url(#XMLID_3_);}
</style>
<g id="Layer_1" class="st0">
	<g id="Layer_1_1_">
		<g class="st1">
			<g class="st0">
				<rect x="-0.3" y="7" class="st2" width="350.3" height="166.4"/>
				<line class="st2" x1="-0.3" y1="152.6" x2="350" y2="152.6"/>
				<line class="st2" x1="-0.3" y1="131.8" x2="350" y2="131.8"/>
				<line class="st2" x1="-0.3" y1="111" x2="350" y2="111"/>
				<line class="st2" x1="350" y1="90.2" x2="-0.3" y2="90.2"/>
				<line class="st2" x1="-0.3" y1="69.4" x2="350" y2="69.4"/>
				<line class="st2" x1="-0.3" y1="48.6" x2="350" y2="48.6"/>
				<line class="st2" x1="-0.3" y1="27.8" x2="350" y2="27.8"/>
				<line class="st2" x1="306.2" y1="7" x2="306.2" y2="173.4"/>
				<line class="st2" x1="262.4" y1="7" x2="262.4" y2="173.4"/>
				<line class="st2" x1="218.6" y1="7" x2="218.6" y2="173.4"/>
				<line class="st2" x1="174.9" y1="7" x2="174.9" y2="173.4"/>
				<line class="st2" x1="131.1" y1="7" x2="131.1" y2="173.4"/>
				<line class="st2" x1="87.3" y1="7" x2="87.3" y2="173.4"/>
				<line class="st2" x1="43.5" y1="7" x2="43.5" y2="173.4"/>
			</g>
			<g>
				<g>
					<defs>
						<rect id="SVGID_1_" x="-0.3" y="7" width="350.3" height="166.4"/>
					</defs>
					<clipPath id="SVGID_2_">
						<use xlink:href="#SVGID_1_"  style="overflow:visible;"/>
					</clipPath>
					<g class="st3">
						
							<linearGradient id="SVGID_3_" gradientUnits="userSpaceOnUse" x1="188.485" y1="-47.17" x2="188.485" y2="123.0978" gradientTransform="matrix(1 0 0 -1 0 152)">
							<stop  offset="0" style="stop-color:#00A0FF;stop-opacity:0"/>
							<stop  offset="0.2511" style="stop-color:#34B1B8;stop-opacity:0.2511"/>
							<stop  offset="0.6204" style="stop-color:#7CC956;stop-opacity:0.6204"/>
							<stop  offset="0.8782" style="stop-color:#AAD818;stop-opacity:0.8782"/>
							<stop  offset="1" style="stop-color:#BCDE00"/>
						</linearGradient>
						<path class="st4" d="M-19.3,83.3c-0.6-7.6,8.5-13.7,17.5-14.1s17.5,3.2,25.1,7.3c7.6,4.1,15,8.7,23.7,10.6
							c14.3,3.1,29.5-2,41.1-9.7c11.6-7.7,20.4-17.8,30.4-27s21.8-17.6,36.2-20.4c21.7-4.2,43.8,5.4,61.3,16.9s33.4,25.5,54.1,32.5
							c21,7.1,45.8,5.9,65.7-3.3c11.9-5.5,22-13.5,34.1-18.7c12.1-5.1,28.1-6.6,38.4,0.8v141H-31.3L-19.3,83.3z"/>
						
							<linearGradient id="SVGID_4_" gradientUnits="userSpaceOnUse" x1="-20.3455" y1="93.5701" x2="408.821" y2="93.5701" gradientTransform="matrix(1 0 0 -1 0 152)">
							<stop  offset="0" style="stop-color:#00A0FF"/>
							<stop  offset="0.2511" style="stop-color:#34B1B8"/>
							<stop  offset="0.6204" style="stop-color:#7CC956"/>
							<stop  offset="0.8782" style="stop-color:#AAD818"/>
							<stop  offset="1" style="stop-color:#BCDE00"/>
						</linearGradient>
						<path class="st5" d="M-19.3,83.3c-0.6-7.6,8.5-13.7,17.5-14.1s17.5,3.2,25.1,7.3c7.6,4.1,15,8.7,23.7,10.6
							c14.3,3.1,29.5-2,41.1-9.7c11.6-7.7,20.4-17.8,30.4-27s21.8-17.6,36.2-20.4c21.7-4.2,43.8,5.4,61.3,16.9s33.4,25.5,54.1,32.5
							c21,7.1,45.8,5.9,65.7-3.3c11.9-5.5,22-13.5,34.1-18.7c12.1-5.1,28.1-6.6,38.4,0.8"/>
					</g>
				</g>
				<g>
					<defs>
						<rect id="SVGID_5_" x="-0.3" y="7" width="350.3" height="166.4"/>
					</defs>
					<clipPath id="SVGID_6_">
						<use xlink:href="#SVGID_5_"  style="overflow:visible;"/>
					</clipPath>
					<g class="st6">
						
							<linearGradient id="SVGID_7_" gradientUnits="userSpaceOnUse" x1="174.425" y1="-33.37" x2="174.425" y2="122.7758" gradientTransform="matrix(1 0 0 -1 0 152)">
							<stop  offset="0" style="stop-color:#FFC180;stop-opacity:0"/>
							<stop  offset="0.1659" style="stop-color:#FFA97F;stop-opacity:0.1659"/>
							<stop  offset="0.5169" style="stop-color:#FF6B7B;stop-opacity:0.5169"/>
							<stop  offset="1" style="stop-color:#FF0D75"/>
						</linearGradient>
						<path class="st7" d="M-17.8,149.3c0-12.3,7.6-24.4,19.7-31.4c12.1-7,28.2-8.6,41.9-4.2c11.9,3.8,22.1,11.9,34.8,13
							c13.7,1.2,26.4-6.2,35.3-15s15.3-19.3,24.7-27.7c9.4-8.5,23.2-14.9,36.5-12.2c10.7,2.2,18.9,9.8,29.4,12.4
							c13.5,3.3,28.1-2.4,38.6-10.3s18.6-17.9,29-25.9c26.7-20.5,69.3-24.7,101-10v147.4H-24.2L-17.8,149.3z"/>
						
							<linearGradient id="SVGID_8_" gradientUnits="userSpaceOnUse" x1="-18.7069" y1="63.211" x2="373.4677" y2="63.211" gradientTransform="matrix(1 0 0 -1 0 152)">
							<stop  offset="0" style="stop-color:#FFC180"/>
							<stop  offset="0.1659" style="stop-color:#FFA97F"/>
							<stop  offset="0.5169" style="stop-color:#FF6B7B"/>
							<stop  offset="1" style="stop-color:#FF0D75"/>
						</linearGradient>
						<path class="st8" d="M-17.8,149.3c0-12.3,7.6-24.4,19.7-31.4c12.1-7,28.2-8.6,41.9-4.2c11.9,3.8,22.1,11.9,34.8,13
							c13.7,1.2,26.4-6.2,35.3-15s15.3-19.3,24.7-27.7c9.4-8.5,23.2-14.9,36.5-12.2c10.7,2.2,18.9,9.8,29.4,12.4
							c13.5,3.3,28.1-2.4,38.6-10.3s18.6-17.9,29-25.9c26.7-20.5,69.3-24.7,101-10"/>
					</g>
				</g>
				<g>
					<defs>
						<rect id="SVGID_9_" x="-0.3" y="7" width="350.3" height="166.4"/>
					</defs>
					<clipPath id="SVGID_10_">
						<use xlink:href="#SVGID_9_"  style="overflow:visible;"/>
					</clipPath>
					<g class="st9">
						
							<linearGradient id="SVGID_11_" gradientUnits="userSpaceOnUse" x1="237.625" y1="-50.11" x2="237.625" y2="143.1873" gradientTransform="matrix(1 0 0 -1 0 152)">
							<stop  offset="0" style="stop-color:#3500FF;stop-opacity:0"/>
							<stop  offset="1" style="stop-color:#FF2DB4"/>
						</linearGradient>
						<path class="st10" d="M75,202.1c8.8-18.3,17.7-36.8,32.1-52.4s35.4-27.9,58.8-29.2c21.4-1.2,42.7,6.9,63.9,4.3
							c26.7-3.4,46.3-22.8,59.4-42.6s22.9-41.8,42-57.8c9.5-8,21.6-14.4,35-15.5s28,4,34.1,14v170.3L75,202.1z"/>
						
							<linearGradient id="SVGID_12_" gradientUnits="userSpaceOnUse" x1="74.1709" y1="46.7848" x2="401.0352" y2="46.7848" gradientTransform="matrix(1 0 0 -1 0 152)">
							<stop  offset="0" style="stop-color:#3500FF"/>
							<stop  offset="1" style="stop-color:#FF2DB4"/>
						</linearGradient>
						<path class="st11" d="M400.3,23C394.1,13,379.5,7.9,366.2,9s-25.5,7.5-35,15.5c-19.1,16-28.8,38-42,57.8
							c-13.1,19.8-32.7,39.2-59.4,42.6c-21.2,2.7-42.5-5.4-63.9-4.3c-23.4,1.3-44.3,13.6-58.8,29.2S83.7,183.8,75,202.1"/>
					</g>
				</g>
				<g>
					<defs>
						<rect id="SVGID_13_" x="-0.3" y="7" width="350.3" height="166.4"/>
					</defs>
					<clipPath id="SVGID_14_">
						<use xlink:href="#SVGID_13_"  style="overflow:visible;"/>
					</clipPath>
					
						<linearGradient id="SVGID_15_" gradientUnits="userSpaceOnUse" x1="54.01" y1="72.815" x2="63.17" y2="72.815" gradientTransform="matrix(1 0 0 -1 0 152)">
						<stop  offset="0" style="stop-color:#00A0FF"/>
						<stop  offset="0.2511" style="stop-color:#34B1B8"/>
						<stop  offset="0.6204" style="stop-color:#7CC956"/>
						<stop  offset="0.8782" style="stop-color:#AAD818"/>
						<stop  offset="1" style="stop-color:#BCDE00"/>
					</linearGradient>
					<path class="st12" d="M58.6,74.3c-2.5,0-4.6,1.7-4.6,3.8s2,5.9,4.6,5.9c2.5,0,4.6-3.8,4.6-5.9C63.2,76,61.1,74.3,58.6,74.3z
						 M58.6,79.2c-0.7,0-1.2-0.5-1.2-1c0-0.6,0.5-1,1.2-1s1.2,0.5,1.2,1S59.3,79.2,58.6,79.2z"/>
				</g>
				<g>
					<defs>
						<rect id="SVGID_16_" x="-0.3" y="7" width="350.3" height="166.4"/>
					</defs>
					<clipPath id="SVGID_17_">
						<use xlink:href="#SVGID_16_"  style="overflow:visible;"/>
					</clipPath>
					
						<linearGradient id="SVGID_18_" gradientUnits="userSpaceOnUse" x1="161.78" y1="88.575" x2="170.94" y2="88.575" gradientTransform="matrix(1 0 0 -1 0 152)">
						<stop  offset="0" style="stop-color:#FFC180"/>
						<stop  offset="0.1659" style="stop-color:#FFA97F"/>
						<stop  offset="0.5169" style="stop-color:#FF6B7B"/>
						<stop  offset="1" style="stop-color:#FF0D75"/>
					</linearGradient>
					<path class="st13" d="M166.4,58.5c-2.5,0-4.6,1.7-4.6,3.8s2.1,5.9,4.6,5.9s4.6-3.8,4.6-5.9C170.9,60.3,168.9,58.5,166.4,58.5z
						 M166.4,63.4c-0.7,0-1.2-0.5-1.2-1c0-0.6,0.6-1,1.2-1s1.2,0.5,1.2,1C167.6,63,167,63.4,166.4,63.4z"/>
				</g>
				<g>
					<defs>
						<rect id="SVGID_19_" x="-0.3" y="7" width="350.3" height="166.4"/>
					</defs>
					<clipPath id="SVGID_20_">
						<use xlink:href="#SVGID_19_"  style="overflow:visible;"/>
					</clipPath>
					
						<linearGradient id="SVGID_21_" gradientUnits="userSpaceOnUse" x1="231.48" y1="36.115" x2="240.64" y2="36.115" gradientTransform="matrix(1 0 0 -1 0 152)">
						<stop  offset="0" style="stop-color:#45509A"/>
						<stop  offset="7.960916e-03" style="stop-color:#474F9A"/>
						<stop  offset="0.4979" style="stop-color:#A92783"/>
						<stop  offset="0.8389" style="stop-color:#E70D75"/>
						<stop  offset="1" style="stop-color:#FF036F"/>
					</linearGradient>
					<path class="st14" d="M236.1,111c-2.5,0-4.6,1.7-4.6,3.8s2.1,5.9,4.6,5.9s4.6-3.8,4.6-5.9S238.6,111,236.1,111z M236.1,115.9
						c-0.7,0-1.2-0.5-1.2-1s0.6-1,1.2-1s1.2,0.5,1.2,1S236.7,115.9,236.1,115.9z"/>
				</g>
			</g>
			
				<text transform="matrix(1.1892 0 0 1 5.0229 192.6982)" style="display:none;fill:#818794;enable-background:new    ; font-family:'ArialMT'; font-size:9.209px;">Lorem ipsum</text>
			
				<text transform="matrix(1.1892 0 0 1 136.1362 192.6982)" style="display:none;fill:#818794;enable-background:new    ; font-family:'ArialMT'; font-size:9.209px;">Lorem ipsum</text>
			
				<text transform="matrix(1.1892 0 0 1 267.252 192.6982)" style="display:none;fill:#818794;enable-background:new    ; font-family:'ArialMT'; font-size:9.209px;">Lorem ipsum</text>
		</g>
	</g>
	<g id="Layer_2_1_" class="st1">
		<g>
			
				<linearGradient id="SVGID_22_" gradientUnits="userSpaceOnUse" x1="172.32" y1="-67" x2="172.32" y2="66.6585" gradientTransform="matrix(1 0 0 -1 0 152)">
				<stop  offset="0" style="stop-color:#00A0FF;stop-opacity:0"/>
				<stop  offset="0.2511" style="stop-color:#34B1B8;stop-opacity:0.2511"/>
				<stop  offset="0.6204" style="stop-color:#7CC956;stop-opacity:0.6204"/>
				<stop  offset="0.8782" style="stop-color:#AAD818;stop-opacity:0.8782"/>
				<stop  offset="1" style="stop-color:#BCDE00"/>
			</linearGradient>
			<path class="st15" d="M-4.2,128.1c-0.5-5.9,7.3-10.7,14.9-11.1c7.6-0.4,14.9,2.5,21.3,5.7s12.8,6.8,20.2,8.3
				c12.2,2.4,25.1-1.6,34.9-7.6c9.8-6,17.3-14,25.8-21.2c8.5-7.2,18.5-13.8,30.7-16.1c18.4-3.3,37.2,4.2,52.1,13.3
				c14.9,9.1,28.4,20,45.9,25.5c17.9,5.6,38.9,4.6,55.8-2.6c10.1-4.3,18.7-10.6,29-14.6s23.8-5.2,32.6,0.6V219H-14.4L-4.2,128.1z"/>
			
				<linearGradient id="SVGID_23_" gradientUnits="userSpaceOnUse" x1="-5.2421" y1="43.4758" x2="359.5601" y2="43.4758" gradientTransform="matrix(1 0 0 -1 0 152)">
				<stop  offset="0" style="stop-color:#00A0FF"/>
				<stop  offset="0.2511" style="stop-color:#34B1B8"/>
				<stop  offset="0.6204" style="stop-color:#7CC956"/>
				<stop  offset="0.8782" style="stop-color:#AAD818"/>
				<stop  offset="1" style="stop-color:#BCDE00"/>
			</linearGradient>
			<path class="st16" d="M-4.2,128.1c-0.5-5.9,7.3-10.7,14.9-11.1c7.6-0.4,14.9,2.5,21.3,5.7s12.8,6.8,20.2,8.3
				c12.2,2.4,25.1-1.6,34.9-7.6c9.8-6,17.3-14,25.8-21.2c8.5-7.2,18.5-13.8,30.7-16.1c18.4-3.3,37.2,4.2,52.1,13.3
				c14.9,9.1,28.4,20,45.9,25.5c17.9,5.6,38.9,4.6,55.8-2.6c10.1-4.3,18.7-10.6,29-14.6s23.8-5.2,32.6,0.6"/>
		</g>
	</g>
	<path class="st17" d="M-1.5,64.4"/>
</g>
<g id="Layer_2" class="st0">
	
		<image style="display:inline;overflow:visible;" width="295" height="150" xlink:href="A8C4BF41.jpg"  transform="matrix(1 0 0 1 27.5 0)">
	</image>
</g>
<g id="Layer_3">
	<g id="XMLID_371_">
		<g>
			<linearGradient id="XMLID_3_" gradientUnits="userSpaceOnUse" x1="158.4123" y1="200.8232" x2="179.7568" y2="79.7729">
				<stop  offset="1.936395e-07" style="stop-color:#FFFFFF"/>
				<stop  offset="1" style="stop-color:#BF1140"/>
			</linearGradient>
			<polygon id="XMLID_10_" class="st18" points="350,165.4 309.6,129 274.2,136.3 216.4,98.8 175.5,129 123.4,83.3 70,101.1 0,48.1 
				0,172.9 			"/>
		</g>
	</g>
	
		<image style="display:none;overflow:visible;" width="158" height="56" xlink:href="A8C4BF43.jpg"  transform="matrix(1 0 0 1 96 47)">
	</image>
</g>
</svg>
