<?xml version="1.0" encoding="utf-8"?>
<!-- Generator: Adobe Illustrator 24.1.1, SVG Export Plug-In . SVG Version: 6.00 Build 0)  -->
<svg version="1.1" xmlns="http://www.w3.org/2000/svg" xmlns:xlink="http://www.w3.org/1999/xlink" x="0px" y="0px"
	 viewBox="0 0 350 150" style="enable-background:new 0 0 350 150;" xml:space="preserve">
<style type="text/css">
	.st0{display:none;}
	.st1{display:inline;}
	.st2{display:inline;fill:none;stroke:#454650;stroke-width:0.4698;stroke-miterlimit:10;}
	.st3{clip-path:url(#SVGID_2_);}
	.st4{opacity:0.51;fill:url(#SVGID_3_);}
	.st5{fill:none;stroke:url(#SVGID_4_);stroke-width:2;stroke-miterlimit:10;}
	.st6{display:none;clip-path:url(#SVGID_2_);}
	.st7{display:inline;fill:url(#SVGID_5_);}
	.st8{display:inline;fill:none;stroke:url(#SVGID_6_);stroke-width:1.7938;stroke-miterlimit:10;}
	.st9{display:inline;opacity:0.58;fill:url(#SVGID_7_);}
	.st10{display:inline;fill:none;stroke:url(#SVGID_8_);stroke-width:1.7938;stroke-miterlimit:10;}
	.st11{display:none;clip-path:url(#SVGID_2_);fill:url(#SVGID_9_);}
	.st12{display:none;clip-path:url(#SVGID_2_);fill:url(#SVGID_10_);}
	.st13{display:none;clip-path:url(#SVGID_2_);fill:url(#SVGID_11_);}
	.st14{opacity:0.51;fill:url(#SVGID_12_);}
	.st15{fill:none;stroke:url(#SVGID_13_);stroke-width:2;stroke-miterlimit:10;}
</style>
<g id="Layer_1" class="st0">
	<g class="st1">
		<g class="st0">
			<rect x="-0.3" y="7" class="st2" width="350.3" height="166.39"/>
			<line class="st2" x1="-0.3" y1="152.59" x2="350" y2="152.59"/>
			<line class="st2" x1="-0.3" y1="131.79" x2="350" y2="131.79"/>
			<line class="st2" x1="-0.3" y1="110.99" x2="350" y2="110.99"/>
			<line class="st2" x1="350" y1="90.19" x2="-0.3" y2="90.19"/>
			<line class="st2" x1="-0.3" y1="69.4" x2="350" y2="69.4"/>
			<line class="st2" x1="-0.3" y1="48.6" x2="350" y2="48.6"/>
			<line class="st2" x1="-0.3" y1="27.8" x2="350" y2="27.8"/>
			<line class="st2" x1="306.21" y1="7" x2="306.21" y2="173.39"/>
			<line class="st2" x1="262.43" y1="7" x2="262.43" y2="173.39"/>
			<line class="st2" x1="218.64" y1="7" x2="218.64" y2="173.39"/>
			<line class="st2" x1="174.85" y1="7" x2="174.85" y2="173.39"/>
			<line class="st2" x1="131.06" y1="7" x2="131.06" y2="173.39"/>
			<line class="st2" x1="87.28" y1="7" x2="87.28" y2="173.39"/>
			<line class="st2" x1="43.49" y1="7" x2="43.49" y2="173.39"/>
		</g>
		<g>
			<defs>
				<rect id="SVGID_1_" x="-0.3" y="7" width="350.3" height="166.39"/>
			</defs>
			<clipPath id="SVGID_2_">
				<use xlink:href="#SVGID_1_"  style="overflow:visible;"/>
			</clipPath>
			<g class="st3">
				<linearGradient id="SVGID_3_" gradientUnits="userSpaceOnUse" x1="188.4892" y1="199.1557" x2="188.4892" y2="28.8873">
					<stop  offset="0" style="stop-color:#00A0FF;stop-opacity:0"/>
					<stop  offset="0.2511" style="stop-color:#34B1B8;stop-opacity:0.2511"/>
					<stop  offset="0.6204" style="stop-color:#7CC956;stop-opacity:0.6204"/>
					<stop  offset="0.8782" style="stop-color:#AAD818;stop-opacity:0.8782"/>
					<stop  offset="1" style="stop-color:#BCDE00"/>
				</linearGradient>
				<path class="st4" d="M-19.32,83.34c-0.57-7.55,8.53-13.68,17.51-14.14s17.49,3.22,25.08,7.29c7.59,4.06,15.02,8.71,23.74,10.57
					c14.3,3.05,29.53-2.04,41.1-9.73c11.57-7.7,20.43-17.83,30.4-26.97c9.97-9.14,21.79-17.64,36.16-20.44
					c21.67-4.23,43.76,5.37,61.29,16.89s33.42,25.53,54.06,32.52c21.03,7.12,45.81,5.89,65.7-3.26
					c11.91-5.48,21.97-13.54,34.11-18.65c12.14-5.11,28.06-6.63,38.41,0.76v140.99H-31.27L-19.32,83.34z"/>
				<linearGradient id="SVGID_4_" gradientUnits="userSpaceOnUse" x1="-20.3486" y1="58.4206" x2="408.8271" y2="58.4206">
					<stop  offset="0" style="stop-color:#00A0FF"/>
					<stop  offset="0.2511" style="stop-color:#34B1B8"/>
					<stop  offset="0.6204" style="stop-color:#7CC956"/>
					<stop  offset="0.8782" style="stop-color:#AAD818"/>
					<stop  offset="1" style="stop-color:#BCDE00"/>
				</linearGradient>
				<path class="st5" d="M-19.32,83.34c-0.57-7.55,8.53-13.68,17.51-14.14s17.49,3.22,25.08,7.29c7.59,4.06,15.02,8.71,23.74,10.57
					c14.3,3.05,29.53-2.04,41.1-9.73c11.57-7.7,20.43-17.83,30.4-26.97c9.97-9.14,21.79-17.64,36.16-20.44
					c21.67-4.23,43.76,5.37,61.29,16.89s33.42,25.53,54.06,32.52c21.03,7.12,45.81,5.89,65.7-3.26
					c11.91-5.48,21.97-13.54,34.11-18.65c12.14-5.11,28.06-6.63,38.41,0.76"/>
			</g>
			<g class="st6">
				<linearGradient id="SVGID_5_" gradientUnits="userSpaceOnUse" x1="174.4258" y1="185.3643" x2="174.4258" y2="29.2191">
					<stop  offset="0" style="stop-color:#FFC180;stop-opacity:0"/>
					<stop  offset="0.1659" style="stop-color:#FFA97F;stop-opacity:0.1659"/>
					<stop  offset="0.5169" style="stop-color:#FF6B7B;stop-opacity:0.5169"/>
					<stop  offset="1" style="stop-color:#FF0D75"/>
				</linearGradient>
				<path class="st7" d="M-17.81,149.25c0.01-12.3,7.61-24.43,19.66-31.4c12.06-6.97,28.24-8.59,41.9-4.19
					c11.92,3.84,22.06,11.91,34.76,13.01c13.67,1.18,26.45-6.23,35.34-15.04c8.89-8.81,15.31-19.29,24.68-27.74
					c9.37-8.46,23.2-14.9,36.54-12.15c10.7,2.21,18.85,9.81,29.44,12.38c13.54,3.29,28.07-2.41,38.61-10.28
					c10.54-7.87,18.55-17.89,28.98-25.88c26.74-20.49,69.31-24.71,100.99-10v147.41H-24.24L-17.81,149.25z"/>
				<linearGradient id="SVGID_6_" gradientUnits="userSpaceOnUse" x1="-18.7064" y1="88.7843" x2="373.4686" y2="88.7843">
					<stop  offset="0" style="stop-color:#FFC180"/>
					<stop  offset="0.1659" style="stop-color:#FFA97F"/>
					<stop  offset="0.5169" style="stop-color:#FF6B7B"/>
					<stop  offset="1" style="stop-color:#FF0D75"/>
				</linearGradient>
				<path class="st8" d="M-17.81,149.25c0.01-12.3,7.61-24.43,19.66-31.4c12.06-6.97,28.24-8.59,41.9-4.19
					c11.92,3.84,22.06,11.91,34.76,13.01c13.67,1.18,26.45-6.23,35.34-15.04c8.89-8.81,15.31-19.29,24.68-27.74
					c9.37-8.46,23.2-14.9,36.54-12.15c10.7,2.21,18.85,9.81,29.44,12.38c13.54,3.29,28.07-2.41,38.61-10.28
					c10.54-7.87,18.55-17.89,28.98-25.88c26.74-20.49,69.31-24.71,100.99-10"/>
			</g>
			<g class="st6">
				<linearGradient id="SVGID_7_" gradientUnits="userSpaceOnUse" x1="237.6286" y1="202.1122" x2="237.6286" y2="8.8202">
					<stop  offset="0" style="stop-color:#3500FF;stop-opacity:0"/>
					<stop  offset="1" style="stop-color:#FF2DB4"/>
				</linearGradient>
				<path class="st9" d="M74.98,202.11c8.75-18.29,17.69-36.85,32.13-52.38s35.39-27.9,58.79-29.16
					c21.39-1.15,42.67,6.94,63.87,4.27c26.67-3.36,46.26-22.77,59.41-42.57c13.15-19.8,22.91-41.79,41.98-57.83
					c9.51-8,21.62-14.38,35-15.48s27.96,4,34.11,14.05V193.3L74.98,202.11z"/>
				<linearGradient id="SVGID_8_" gradientUnits="userSpaceOnUse" x1="74.1745" y1="105.2113" x2="401.0387" y2="105.2113">
					<stop  offset="0" style="stop-color:#3500FF"/>
					<stop  offset="1" style="stop-color:#FF2DB4"/>
				</linearGradient>
				<path class="st10" d="M400.27,23.02c-6.15-10.06-20.73-15.16-34.11-14.05s-25.49,7.49-35,15.48
					c-19.07,16.03-28.84,38.03-41.98,57.83c-13.15,19.8-32.74,39.2-59.41,42.57c-21.2,2.67-42.48-5.42-63.87-4.27
					c-23.4,1.26-44.34,13.63-58.79,29.16s-23.38,34.09-32.13,52.38"/>
			</g>
			<linearGradient id="SVGID_9_" gradientUnits="userSpaceOnUse" x1="54.0123" y1="79.1891" x2="63.1654" y2="79.1891">
				<stop  offset="0" style="stop-color:#00A0FF"/>
				<stop  offset="0.2511" style="stop-color:#34B1B8"/>
				<stop  offset="0.6204" style="stop-color:#7CC956"/>
				<stop  offset="0.8782" style="stop-color:#AAD818"/>
				<stop  offset="1" style="stop-color:#BCDE00"/>
			</linearGradient>
			<path class="st11" d="M58.59,74.29c-2.53,0-4.58,1.72-4.58,3.85c0,2.13,2.05,5.94,4.58,5.94c2.53,0,4.58-3.82,4.58-5.94
				C63.17,76.02,61.12,74.29,58.59,74.29z M58.59,79.18c-0.68,0-1.23-0.46-1.23-1.04c0-0.57,0.55-1.04,1.23-1.04
				s1.23,0.46,1.23,1.04C59.82,78.72,59.27,79.18,58.59,79.18z"/>
			<linearGradient id="SVGID_10_" gradientUnits="userSpaceOnUse" x1="161.7845" y1="63.4275" x2="170.9377" y2="63.4275">
				<stop  offset="0" style="stop-color:#FFC180"/>
				<stop  offset="0.1659" style="stop-color:#FFA97F"/>
				<stop  offset="0.5169" style="stop-color:#FF6B7B"/>
				<stop  offset="1" style="stop-color:#FF0D75"/>
			</linearGradient>
			<path class="st12" d="M166.36,58.53c-2.53,0-4.58,1.72-4.58,3.85c0,2.13,2.05,5.94,4.58,5.94c2.53,0,4.58-3.82,4.58-5.94
				C170.94,60.26,168.89,58.53,166.36,58.53z M166.36,63.42c-0.68,0-1.23-0.46-1.23-1.04c0-0.57,0.55-1.04,1.23-1.04
				c0.68,0,1.23,0.46,1.23,1.04C167.59,62.95,167.04,63.42,166.36,63.42z"/>
			<linearGradient id="SVGID_11_" gradientUnits="userSpaceOnUse" x1="231.485" y1="115.8841" x2="240.6382" y2="115.8841">
				<stop  offset="0" style="stop-color:#45509A"/>
				<stop  offset="7.960916e-03" style="stop-color:#474F9A"/>
				<stop  offset="0.4979" style="stop-color:#A92783"/>
				<stop  offset="0.8389" style="stop-color:#E70D75"/>
				<stop  offset="1" style="stop-color:#FF036F"/>
			</linearGradient>
			<path class="st13" d="M236.06,110.99c-2.53,0-4.58,1.72-4.58,3.85s2.05,5.94,4.58,5.94c2.53,0,4.58-3.82,4.58-5.94
				S238.59,110.99,236.06,110.99z M236.06,115.87c-0.68,0-1.23-0.46-1.23-1.04s0.55-1.04,1.23-1.04s1.23,0.46,1.23,1.04
				S236.74,115.87,236.06,115.87z"/>
		</g>
		
			<text transform="matrix(1.1892 0 0 1 5.0234 192.6982)" style="display:none;fill:#818794; font-family:'Montserrat-Medium'; font-size:9.209px;">Lorem ipsum</text>
		
			<text transform="matrix(1.1892 0 0 1 136.1367 192.6982)" style="display:none;fill:#818794; font-family:'Montserrat-Medium'; font-size:9.209px;">Lorem ipsum</text>
		
			<text transform="matrix(1.1892 0 0 1 267.252 192.6982)" style="display:none;fill:#818794; font-family:'Montserrat-Medium'; font-size:9.209px;">Lorem ipsum</text>
	</g>
</g>
<g id="Layer_2">
	<g>
		<linearGradient id="SVGID_12_" gradientUnits="userSpaceOnUse" x1="172.3151" y1="212" x2="172.3151" y2="78.3211">
			<stop  offset="0" style="stop-color:#00A0FF;stop-opacity:0"/>
			<stop  offset="0.2511" style="stop-color:#34B1B8;stop-opacity:0.2511"/>
			<stop  offset="0.6204" style="stop-color:#7CC956;stop-opacity:0.6204"/>
			<stop  offset="0.8782" style="stop-color:#AAD818;stop-opacity:0.8782"/>
			<stop  offset="1" style="stop-color:#BCDE00"/>
		</linearGradient>
		<path class="st14" d="M-4.22,121.08c-0.49-5.93,7.25-10.74,14.87-11.1c7.63-0.36,14.86,2.53,21.31,5.72
			c6.45,3.19,12.76,6.83,20.17,8.3c12.15,2.4,25.09-1.6,34.92-7.64c9.83-6.04,17.35-14,25.83-21.17
			c8.47-7.18,18.51-13.85,30.72-16.05c18.41-3.32,37.18,4.22,52.07,13.26c14.89,9.05,28.39,20.04,45.92,25.53
			c17.86,5.59,38.92,4.62,55.81-2.56c10.12-4.3,18.67-10.63,28.98-14.64c10.31-4.01,23.84-5.2,32.63,0.59V212H-14.37L-4.22,121.08z"
			/>
		<linearGradient id="SVGID_13_" gradientUnits="userSpaceOnUse" x1="-5.2442" y1="101.5079" x2="359.5506" y2="101.5079">
			<stop  offset="0" style="stop-color:#00A0FF"/>
			<stop  offset="0.2511" style="stop-color:#34B1B8"/>
			<stop  offset="0.6204" style="stop-color:#7CC956"/>
			<stop  offset="0.8782" style="stop-color:#AAD818"/>
			<stop  offset="1" style="stop-color:#BCDE00"/>
		</linearGradient>
		<path class="st15" d="M-4.22,121.08c-0.49-5.93,7.25-10.74,14.87-11.1c7.63-0.36,14.86,2.53,21.31,5.72
			c6.45,3.19,12.76,6.83,20.17,8.3c12.15,2.4,25.09-1.6,34.92-7.64c9.83-6.04,17.35-14,25.83-21.17
			c8.47-7.18,18.51-13.85,30.72-16.05c18.41-3.32,37.18,4.22,52.07,13.26c14.89,9.05,28.39,20.04,45.92,25.53
			c17.86,5.59,38.92,4.62,55.81-2.56c10.12-4.3,18.67-10.63,28.98-14.64c10.31-4.01,23.84-5.2,32.63,0.59"/>
	</g>
</g>
</svg>
