<?xml version="1.0" encoding="utf-8"?>
<!-- Generator: Adobe Illustrator 24.1.1, SVG Export Plug-In . SVG Version: 6.00 Build 0)  -->
<svg version="1.1" xmlns="http://www.w3.org/2000/svg" xmlns:xlink="http://www.w3.org/1999/xlink" x="0px" y="0px"
	 viewBox="0 0 350 150" style="enable-background:new 0 0 350 150;" xml:space="preserve">
<style type="text/css">
	.st0{display:none;}
	.st1{display:inline;fill:#0DA65F;}
	.st2{display:inline;fill:#BF1140;}
	.st3{display:inline;fill:none;stroke:#454650;stroke-width:0.4698;stroke-miterlimit:10;}
	.st4{opacity:0.6;fill:url(#SVGID_1_);}
	.st5{fill:none;stroke:#0DA65F;stroke-miterlimit:10;}
</style>
<g id="Layer_2" class="st0">
	<rect x="-20.8" y="-119.4" class="st1" width="57.5" height="106.9"/>
	
		<image style="display:inline;overflow:visible;" width="295" height="150" xlink:href="A4D17946.jpg"  transform="matrix(1 0 0 1 27.5 0)">
	</image>
	<rect x="51.7" y="-112.3" class="st2" width="69.4" height="73.2"/>
</g>
<g id="Layer_3">
	<g id="Layer_1">
		<g id="Layer_1_1_">
			<g>
				<g class="st0">
					<rect x="-0.3" y="7" class="st3" width="350.3" height="166.4"/>
					<line class="st3" x1="-0.3" y1="152.6" x2="350" y2="152.6"/>
					<line class="st3" x1="-0.3" y1="131.8" x2="350" y2="131.8"/>
					<line class="st3" x1="-0.3" y1="111" x2="350" y2="111"/>
					<line class="st3" x1="350" y1="90.2" x2="-0.3" y2="90.2"/>
					<line class="st3" x1="-0.3" y1="69.4" x2="350" y2="69.4"/>
					<line class="st3" x1="-0.3" y1="48.6" x2="350" y2="48.6"/>
					<line class="st3" x1="-0.3" y1="27.8" x2="350" y2="27.8"/>
					<line class="st3" x1="306.2" y1="7" x2="306.2" y2="173.4"/>
					<line class="st3" x1="262.4" y1="7" x2="262.4" y2="173.4"/>
					<line class="st3" x1="218.6" y1="7" x2="218.6" y2="173.4"/>
					<line class="st3" x1="174.9" y1="7" x2="174.9" y2="173.4"/>
					<line class="st3" x1="131.1" y1="7" x2="131.1" y2="173.4"/>
					<line class="st3" x1="87.3" y1="7" x2="87.3" y2="173.4"/>
					<line class="st3" x1="43.5" y1="7" x2="43.5" y2="173.4"/>
				</g>
				
					<text transform="matrix(1.1892 0 0 1 5.0229 192.6982)" style="display:none;fill:#818794;enable-background:new    ; font-family:'ArialMT'; font-size:9.209px;">Lorem ipsum</text>
				
					<text transform="matrix(1.1892 0 0 1 136.1362 192.6982)" style="display:none;fill:#818794;enable-background:new    ; font-family:'ArialMT'; font-size:9.209px;">Lorem ipsum</text>
				
					<text transform="matrix(1.1892 0 0 1 267.252 192.6982)" style="display:none;fill:#818794;enable-background:new    ; font-family:'ArialMT'; font-size:9.209px;">Lorem ipsum</text>
			</g>
		</g>
		<g>
			<g>
				<linearGradient id="SVGID_1_" gradientUnits="userSpaceOnUse" x1="202.8135" y1="14.6624" x2="202.8135" y2="163.5638">
					<stop  offset="0" style="stop-color:#0DA65F"/>
					<stop  offset="1" style="stop-color:#0DA65F;stop-opacity:0"/>
				</linearGradient>
				<path class="st4" d="M406.1,107.5c-8.1-3.2-16.3-6.4-24.4-9.6c-5.4-2.1-10.9-4.3-16.7-5.1c-13.7-2-27.4,3.7-39.5,10.6
					c-12.1,6.9-23.5,15.2-36.8,19.4c-4.9,1.5-10.1,2.5-15.1,1.3c-8.9-2.1-14.7-10.3-20.3-17.5c-5.6-7.2-13.1-14.6-22.2-14
					c-13.2,0.9-18.8,16.8-28.6,25.7c-1.6,1.4-3.3,2.7-5.4,3.1c-2.4,0.5-4.9-0.3-7.4-0.6c-8.7-1.3-18,2.5-23.3,9.6
					c-1,1.3-1.9,2.8-3.5,3.3c-3,1-5.5-2.3-8-4.1c-5.4-3.8-12.8-1.4-19.4-1.8c-18.9-1.1-30.6-25.1-49.6-25.4
					c-13.4-0.2-23.8,11.7-36.6,15.4c-18.3,5.3-37.2-6.7-50-20.8v67.7h406.7V107.5z"/>
				<path class="st5" d="M-0.5,96.9c12.8,14.1,31.7,26.2,50,20.8c12.9-3.7,23.2-15.6,36.6-15.4c18.9,0.3,30.7,24.3,49.6,25.4
					c6.6,0.4,14-2,19.4,1.8c2.6,1.8,5,5,8,4.1c1.6-0.5,2.5-2,3.5-3.3c5.2-7.1,14.5-11,23.3-9.6c2.5,0.4,4.9,1.1,7.4,0.6
					c2-0.4,3.8-1.7,5.4-3.1c9.8-8.9,15.5-24.8,28.6-25.7c9.1-0.6,16.6,6.7,22.2,14c5.6,7.2,11.4,15.4,20.3,17.5
					c5,1.2,10.2,0.3,15.1-1.3c13.2-4.2,24.7-12.5,36.8-19.4c12.1-6.9,25.7-12.5,39.5-10.6c5.8,0.8,11.3,3,16.7,5.1
					c8.1,3.2,16.3,6.4,24.4,9.6"/>
			</g>
		</g>
	</g>
	<g id="Layer_4">
	</g>
</g>
</svg>
