<svg xmlns="http://www.w3.org/2000/svg" viewBox="0 0 400 150" width="400" height="150"><style>tspan { white-space:pre }</style><path id="Total Sales Per Store " fill="#000000" aria-label="Average Inventory Amount
"  d="M24.45 85L29.04 85L20.59 66.1L16.27 66.1L7.84 85L12.32 85L14 80.95L22.77 80.95ZM15.4 77.63L18.4 70.39L21.4 77.63ZM40.32 70.47L36.16 80.36L32.14 70.47L27.79 70.47L33.9 85L38.24 85L44.37 70.47ZM59.92 77.79C59.92 73.12 56.63 70.26 52.36 70.26C47.94 70.26 44.62 73.39 44.62 77.74C44.62 82.06 47.88 85.22 52.9 85.22C55.52 85.22 57.55 84.41 58.9 82.87L56.66 80.44C55.66 81.38 54.55 81.84 53.01 81.84C50.8 81.84 49.26 80.73 48.85 78.92L59.84 78.92C59.87 78.57 59.92 78.11 59.92 77.79ZM52.39 73.44C54.28 73.44 55.66 74.63 55.96 76.47L48.8 76.47C49.1 74.61 50.47 73.44 52.39 73.44ZM66.76 72.39L66.76 70.47L62.73 70.47L62.73 85L66.94 85L66.94 78.14C66.94 75.36 68.48 74.09 70.81 74.09C71.13 74.09 71.4 74.12 71.75 74.15L71.75 70.26C69.51 70.26 67.78 70.99 66.76 72.39ZM80.04 70.26C77.72 70.26 75.37 70.88 73.78 72.01L75.29 74.96C76.34 74.12 77.93 73.61 79.47 73.61C81.74 73.61 82.82 74.66 82.82 76.47L79.47 76.47C75.04 76.47 73.23 78.25 73.23 80.81C73.23 83.33 75.26 85.22 78.66 85.22C80.8 85.22 82.31 84.51 83.09 83.19L83.09 85L87.03 85L87.03 76.71C87.03 72.31 84.47 70.26 80.04 70.26ZM79.72 82.38C78.23 82.38 77.34 81.68 77.34 80.63C77.34 79.65 77.96 78.92 79.93 78.92L82.82 78.92L82.82 80.41C82.33 81.73 81.12 82.38 79.72 82.38ZM101.99 70.47L101.99 72.34C100.88 70.93 99.21 70.26 97.18 70.26C93.16 70.26 89.92 73.04 89.92 77.28C89.92 81.52 93.16 84.3 97.18 84.3C99.07 84.3 100.67 83.7 101.77 82.49L101.77 83.11C101.77 85.73 100.48 87.08 97.51 87.08C95.64 87.08 93.62 86.43 92.38 85.43L90.7 88.46C92.41 89.78 95.08 90.45 97.83 90.45C103.07 90.45 105.99 87.97 105.99 82.57L105.99 70.47ZM98.02 80.84C95.81 80.84 94.19 79.41 94.19 77.28C94.19 75.14 95.81 73.71 98.02 73.71C100.23 73.71 101.83 75.14 101.83 77.28C101.83 79.41 100.23 80.84 98.02 80.84ZM124.13 77.79C124.13 73.12 120.84 70.26 116.57 70.26C112.14 70.26 108.82 73.39 108.82 77.74C108.82 82.06 112.09 85.22 117.11 85.22C119.73 85.22 121.75 84.41 123.1 82.87L120.86 80.44C119.86 81.38 118.76 81.84 117.22 81.84C115 81.84 113.46 80.73 113.06 78.92L124.05 78.92C124.08 78.57 124.13 78.11 124.13 77.79ZM116.6 73.44C118.49 73.44 119.86 74.63 120.16 76.47L113.01 76.47C113.3 74.61 114.68 73.44 116.6 73.44ZM134.88 85L139.25 85L139.25 66.1L134.88 66.1ZM152.26 70.26C150.29 70.26 148.59 70.93 147.46 72.17L147.46 70.47L143.44 70.47L143.44 85L147.65 85L147.65 77.82C147.65 75.14 149.11 73.9 151.13 73.9C152.99 73.9 154.07 74.98 154.07 77.33L154.07 85L158.29 85L158.29 76.68C158.29 72.26 155.69 70.26 152.26 70.26ZM172.19 70.47L168.03 80.36L164.01 70.47L159.66 70.47L165.76 85L170.11 85L176.24 70.47ZM191.79 77.79C191.79 73.12 188.5 70.26 184.23 70.26C179.8 70.26 176.48 73.39 176.48 77.74C176.48 82.06 179.75 85.22 184.77 85.22C187.39 85.22 189.42 84.41 190.77 82.87L188.53 80.44C187.53 81.38 186.42 81.84 184.88 81.84C182.67 81.84 181.13 80.73 180.72 78.92L191.71 78.92C191.74 78.57 191.79 78.11 191.79 77.79ZM184.26 73.44C186.15 73.44 187.53 74.63 187.82 76.47L180.67 76.47C180.97 74.61 182.34 73.44 184.26 73.44ZM203.43 70.26C201.46 70.26 199.76 70.93 198.62 72.17L198.62 70.47L194.6 70.47L194.6 85L198.81 85L198.81 77.82C198.81 75.14 200.27 73.9 202.3 73.9C204.16 73.9 205.24 74.98 205.24 77.33L205.24 85L209.45 85L209.45 76.68C209.45 72.26 206.86 70.26 203.43 70.26ZM221.49 81.33C221.03 81.68 220.41 81.87 219.79 81.87C218.66 81.87 217.98 81.19 217.98 79.95L217.98 74.04L221.6 74.04L221.6 70.8L217.98 70.8L217.98 67.26L213.77 67.26L213.77 70.8L211.53 70.8L211.53 74.04L213.77 74.04L213.77 80C213.77 83.46 215.77 85.22 219.2 85.22C220.49 85.22 221.76 84.92 222.63 84.3ZM231.46 85.22C236.07 85.22 239.42 82.11 239.42 77.74C239.42 73.36 236.07 70.26 231.46 70.26C226.84 70.26 223.46 73.36 223.46 77.74C223.46 82.11 226.84 85.22 231.46 85.22ZM231.46 81.76C229.35 81.76 227.73 80.25 227.73 77.74C227.73 75.23 229.35 73.71 231.46 73.71C233.56 73.71 235.15 75.23 235.15 77.74C235.15 80.25 233.56 81.76 231.46 81.76ZM246.25 72.39L246.25 70.47L242.23 70.47L242.23 85L246.44 85L246.44 78.14C246.44 75.36 247.98 74.09 250.3 74.09C250.63 74.09 250.9 74.12 251.25 74.15L251.25 70.26C249 70.26 247.28 70.99 246.25 72.39ZM264.64 70.47L260.53 80.33L256.46 70.47L252.11 70.47L258.4 85.11L258.35 85.24C257.78 86.54 257.13 87.05 255.97 87.05C255.13 87.05 254.24 86.7 253.59 86.13L252.06 89.13C253 89.97 254.62 90.45 256.11 90.45C258.73 90.45 260.72 89.4 262.13 85.89L268.69 70.47ZM292.48 85L297.06 85L288.61 66.1L284.29 66.1L275.87 85L280.35 85L282.03 80.95L290.8 80.95ZM283.43 77.63L286.43 70.39L289.42 77.63ZM317.34 70.26C315.15 70.26 313.26 71.15 312.1 72.63C311.08 71.04 309.35 70.26 307.32 70.26C305.46 70.26 303.84 70.91 302.76 72.15L302.76 70.47L298.74 70.47L298.74 85L302.95 85L302.95 77.71C302.95 75.12 304.27 73.9 306.14 73.9C307.89 73.9 308.89 74.98 308.89 77.33L308.89 85L313.1 85L313.1 77.71C313.1 75.12 314.43 73.9 316.32 73.9C318.02 73.9 319.07 74.98 319.07 77.33L319.07 85L323.28 85L323.28 76.68C323.28 72.26 320.8 70.26 317.34 70.26ZM334.14 85.22C338.75 85.22 342.1 82.11 342.1 77.74C342.1 73.36 338.75 70.26 334.14 70.26C329.52 70.26 326.14 73.36 326.14 77.74C326.14 82.11 329.52 85.22 334.14 85.22ZM334.14 81.76C332.03 81.76 330.41 80.25 330.41 77.74C330.41 75.23 332.03 73.71 334.14 73.71C336.24 73.71 337.84 75.23 337.84 77.74C337.84 80.25 336.24 81.76 334.14 81.76ZM355.33 70.47L355.33 77.66C355.33 80.33 353.93 81.57 351.98 81.57C350.12 81.57 349.04 80.49 349.04 78.06L349.04 70.47L344.83 70.47L344.83 78.68C344.83 83.16 347.39 85.22 351.04 85.22C352.82 85.22 354.44 84.54 355.55 83.27L355.55 85L359.54 85L359.54 70.47ZM372.29 70.26C370.32 70.26 368.62 70.93 367.48 72.17L367.48 70.47L363.46 70.47L363.46 85L367.67 85L367.67 77.82C367.67 75.14 369.13 73.9 371.15 73.9C373.02 73.9 374.1 74.98 374.1 77.33L374.1 85L378.31 85L378.31 76.68C378.31 72.26 375.72 70.26 372.29 70.26ZM390.35 81.33C389.89 81.68 389.27 81.87 388.65 81.87C387.51 81.87 386.84 81.19 386.84 79.95L386.84 74.04L390.46 74.04L390.46 70.8L386.84 70.8L386.84 67.26L382.63 67.26L382.63 70.8L380.39 70.8L380.39 74.04L382.63 74.04L382.63 80C382.63 83.46 384.63 85.22 388.06 85.22C389.35 85.22 390.62 84.92 391.48 84.3Z" /></svg>