<svg xmlns="http://www.w3.org/2000/svg" viewBox="0 0 400 150" width="400" height="150"><style>tspan { white-space:pre }</style><path id="Total Sales Per Store " fill="#000000" aria-label="Distinct Products Sold
"  d="M44.02 85L52.61 85C58.79 85 63.03 81.27 63.03 75.55C63.03 69.83 58.79 66.1 52.61 66.1L44.02 66.1ZM48.4 81.41L48.4 69.69L52.39 69.69C56.14 69.69 58.6 71.93 58.6 75.55C58.6 79.17 56.14 81.41 52.39 81.41ZM68.13 68.45C69.7 68.45 70.75 67.42 70.75 66.02C70.75 64.72 69.7 63.75 68.13 63.75C66.57 63.75 65.51 64.78 65.51 66.1C65.51 67.42 66.57 68.45 68.13 68.45ZM66.03 85L70.24 85L70.24 70.47L66.03 70.47ZM79.04 85.22C83.39 85.22 85.9 83.3 85.9 80.6C85.9 74.88 77.12 77.28 77.12 74.79C77.12 74.04 77.93 73.44 79.82 73.44C81.15 73.44 82.58 73.71 84.01 74.52L85.41 71.53C84.03 70.72 81.82 70.26 79.82 70.26C75.58 70.26 73.1 72.2 73.1 74.96C73.1 80.76 81.88 78.33 81.88 80.71C81.88 81.52 81.15 82.03 79.2 82.03C77.42 82.03 75.45 81.46 74.15 80.63L72.75 83.65C74.1 84.54 76.58 85.22 79.04 85.22ZM96.73 81.33C96.27 81.68 95.65 81.87 95.02 81.87C93.89 81.87 93.22 81.19 93.22 79.95L93.22 74.04L96.83 74.04L96.83 70.8L93.22 70.8L93.22 67.26L89 67.26L89 70.8L86.76 70.8L86.76 74.04L89 74.04L89 80C89 83.46 91 85.22 94.43 85.22C95.73 85.22 97 84.92 97.86 84.3ZM102.34 68.45C103.91 68.45 104.96 67.42 104.96 66.02C104.96 64.72 103.91 63.75 102.34 63.75C100.77 63.75 99.72 64.78 99.72 66.1C99.72 67.42 100.77 68.45 102.34 68.45ZM100.23 85L104.45 85L104.45 70.47L100.23 70.47ZM117.19 70.26C115.22 70.26 113.52 70.93 112.39 72.17L112.39 70.47L108.36 70.47L108.36 85L112.57 85L112.57 77.82C112.57 75.14 114.03 73.9 116.06 73.9C117.92 73.9 119 74.98 119 77.33L119 85L123.21 85L123.21 76.68C123.21 72.26 120.62 70.26 117.19 70.26ZM134.2 85.22C137.25 85.22 139.66 83.87 140.71 81.54L137.44 79.76C136.66 81.17 135.5 81.76 134.17 81.76C132.04 81.76 130.37 80.28 130.37 77.74C130.37 75.2 132.04 73.71 134.17 73.71C135.5 73.71 136.66 74.34 137.44 75.71L140.71 73.96C139.66 71.58 137.25 70.26 134.2 70.26C129.48 70.26 126.1 73.36 126.1 77.74C126.1 82.11 129.48 85.22 134.2 85.22ZM151.59 81.33C151.13 81.68 150.51 81.87 149.89 81.87C148.75 81.87 148.08 81.19 148.08 79.95L148.08 74.04L151.7 74.04L151.7 70.8L148.08 70.8L148.08 67.26L143.87 67.26L143.87 70.8L141.63 70.8L141.63 74.04L143.87 74.04L143.87 80C143.87 83.46 145.87 85.22 149.29 85.22C150.59 85.22 151.86 84.92 152.72 84.3ZM171.22 66.1L163.04 66.1L163.04 85L167.41 85L167.41 79.79L171.22 79.79C176.27 79.79 179.43 77.17 179.43 72.96C179.43 68.72 176.27 66.1 171.22 66.1ZM170.98 76.22L167.41 76.22L167.41 69.66L170.98 69.66C173.65 69.66 175 70.88 175 72.96C175 75.01 173.65 76.22 170.98 76.22ZM186.26 72.39L186.26 70.47L182.23 70.47L182.23 85L186.45 85L186.45 78.14C186.45 75.36 187.99 74.09 190.31 74.09C190.63 74.09 190.9 74.12 191.25 74.15L191.25 70.26C189.01 70.26 187.28 70.99 186.26 72.39ZM200.54 85.22C205.16 85.22 208.51 82.11 208.51 77.74C208.51 73.36 205.16 70.26 200.54 70.26C195.92 70.26 192.55 73.36 192.55 77.74C192.55 82.11 195.92 85.22 200.54 85.22ZM200.54 81.76C198.43 81.76 196.81 80.25 196.81 77.74C196.81 75.23 198.43 73.71 200.54 73.71C202.65 73.71 204.24 75.23 204.24 77.74C204.24 80.25 202.65 81.76 200.54 81.76ZM221.9 64.97L221.9 72.01C220.84 70.83 219.33 70.26 217.55 70.26C213.45 70.26 210.29 73.17 210.29 77.74C210.29 82.3 213.45 85.22 217.55 85.22C219.49 85.22 221.03 84.59 222.09 83.33L222.09 85L226.11 85L226.11 64.97ZM218.28 81.76C216.17 81.76 214.55 80.25 214.55 77.74C214.55 75.23 216.17 73.71 218.28 73.71C220.36 73.71 221.98 75.23 221.98 77.74C221.98 80.25 220.36 81.76 218.28 81.76ZM240.42 70.47L240.42 77.66C240.42 80.33 239.01 81.57 237.07 81.57C235.21 81.57 234.13 80.49 234.13 78.06L234.13 70.47L229.92 70.47L229.92 78.68C229.92 83.16 232.48 85.22 236.13 85.22C237.91 85.22 239.53 84.54 240.63 83.27L240.63 85L244.63 85L244.63 70.47ZM255.57 85.22C258.62 85.22 261.02 83.87 262.07 81.54L258.81 79.76C258.02 81.17 256.86 81.76 255.54 81.76C253.41 81.76 251.73 80.28 251.73 77.74C251.73 75.2 253.41 73.71 255.54 73.71C256.86 73.71 258.02 74.34 258.81 75.71L262.07 73.96C261.02 71.58 258.62 70.26 255.57 70.26C250.84 70.26 247.47 73.36 247.47 77.74C247.47 82.11 250.84 85.22 255.57 85.22ZM272.95 81.33C272.5 81.68 271.87 81.87 271.25 81.87C270.12 81.87 269.44 81.19 269.44 79.95L269.44 74.04L273.06 74.04L273.06 70.8L269.44 70.8L269.44 67.26L265.23 67.26L265.23 70.8L262.99 70.8L262.99 74.04L265.23 74.04L265.23 80C265.23 83.46 267.23 85.22 270.66 85.22C271.95 85.22 273.22 84.92 274.09 84.3ZM281.35 85.22C285.7 85.22 288.21 83.3 288.21 80.6C288.21 74.88 279.43 77.28 279.43 74.79C279.43 74.04 280.24 73.44 282.13 73.44C283.46 73.44 284.89 73.71 286.32 74.52L287.72 71.53C286.35 70.72 284.13 70.26 282.13 70.26C277.89 70.26 275.41 72.2 275.41 74.96C275.41 80.76 284.19 78.33 284.19 80.71C284.19 81.52 283.46 82.03 281.51 82.03C279.73 82.03 277.76 81.46 276.46 80.63L275.06 83.65C276.41 84.54 278.89 85.22 281.35 85.22ZM304.95 85.32C310.35 85.32 312.97 82.62 312.97 79.47C312.97 72.53 301.98 74.93 301.98 71.45C301.98 70.26 302.98 69.29 305.57 69.29C307.24 69.29 309.05 69.77 310.81 70.77L312.16 67.45C310.4 66.34 307.97 65.78 305.6 65.78C300.22 65.78 297.63 68.45 297.63 71.66C297.63 78.68 308.62 76.25 308.62 79.79C308.62 80.95 307.57 81.81 304.98 81.81C302.71 81.81 300.33 81 298.74 79.84L297.25 83.14C298.93 84.43 301.95 85.32 304.95 85.32ZM322.58 85.22C327.2 85.22 330.55 82.11 330.55 77.74C330.55 73.36 327.2 70.26 322.58 70.26C317.96 70.26 314.59 73.36 314.59 77.74C314.59 82.11 317.96 85.22 322.58 85.22ZM322.58 81.76C320.47 81.76 318.85 80.25 318.85 77.74C318.85 75.23 320.47 73.71 322.58 73.71C324.69 73.71 326.28 75.23 326.28 77.74C326.28 80.25 324.69 81.76 322.58 81.76ZM333.35 85L337.56 85L337.56 64.97L333.35 64.97ZM352.06 64.97L352.06 72.01C351.01 70.83 349.5 70.26 347.72 70.26C343.61 70.26 340.45 73.17 340.45 77.74C340.45 82.3 343.61 85.22 347.72 85.22C349.66 85.22 351.2 84.59 352.25 83.33L352.25 85L356.28 85L356.28 64.97ZM348.45 81.76C346.34 81.76 344.72 80.25 344.72 77.74C344.72 75.23 346.34 73.71 348.45 73.71C350.52 73.71 352.14 75.23 352.14 77.74C352.14 80.25 350.52 81.76 348.45 81.76Z" /></svg>