<svg xmlns="http://www.w3.org/2000/svg" viewBox="0 0 400 150" width="400" height="150"><style>tspan { white-space:pre }</style><path id="Total Sales Per Store " fill="#000000" aria-label="Out Of Stock
"  d="M120.66 85.32C126.6 85.32 131 81.19 131 75.55C131 69.91 126.6 65.78 120.66 65.78C114.69 65.78 110.32 69.93 110.32 75.55C110.32 81.17 114.69 85.32 120.66 85.32ZM120.66 81.6C117.29 81.6 114.75 79.14 114.75 75.55C114.75 71.96 117.29 69.5 120.66 69.5C124.04 69.5 126.57 71.96 126.57 75.55C126.57 79.14 124.04 81.6 120.66 81.6ZM144.42 70.47L144.42 77.66C144.42 80.33 143.02 81.57 141.07 81.57C139.21 81.57 138.13 80.49 138.13 78.06L138.13 70.47L133.92 70.47L133.92 78.68C133.92 83.16 136.48 85.22 140.13 85.22C141.91 85.22 143.53 84.54 144.64 83.27L144.64 85L148.63 85L148.63 70.47ZM160.78 81.33C160.32 81.68 159.7 81.87 159.08 81.87C157.95 81.87 157.27 81.19 157.27 79.95L157.27 74.04L160.89 74.04L160.89 70.8L157.27 70.8L157.27 67.26L153.06 67.26L153.06 70.8L150.82 70.8L150.82 74.04L153.06 74.04L153.06 80C153.06 83.46 155.06 85.22 158.49 85.22C159.78 85.22 161.05 84.92 161.92 84.3ZM181.38 85.32C187.32 85.32 191.72 81.19 191.72 75.55C191.72 69.91 187.32 65.78 181.38 65.78C175.42 65.78 171.04 69.93 171.04 75.55C171.04 81.17 175.42 85.32 181.38 85.32ZM181.38 81.6C178.01 81.6 175.47 79.14 175.47 75.55C175.47 71.96 178.01 69.5 181.38 69.5C184.76 69.5 187.3 71.96 187.3 75.55C187.3 79.14 184.76 81.6 181.38 81.6ZM199.34 70.18C199.34 68.75 200.01 68.07 201.26 68.07C201.9 68.07 202.5 68.26 202.96 68.58L204.06 65.53C203.28 64.99 202.04 64.75 200.85 64.75C197.23 64.75 195.23 66.88 195.23 70.15L195.23 70.8L192.99 70.8L192.99 74.04L195.23 74.04L195.23 85L199.45 85L199.45 74.04L203.06 74.04L203.06 70.8L199.34 70.8ZM219.32 85.32C224.72 85.32 227.34 82.62 227.34 79.47C227.34 72.53 216.35 74.93 216.35 71.45C216.35 70.26 217.35 69.29 219.94 69.29C221.61 69.29 223.42 69.77 225.18 70.77L226.53 67.45C224.77 66.34 222.34 65.78 219.97 65.78C214.59 65.78 212 68.45 212 71.66C212 78.68 222.99 76.25 222.99 79.79C222.99 80.95 221.94 81.81 219.35 81.81C217.08 81.81 214.7 81 213.11 79.84L211.62 83.14C213.3 84.43 216.32 85.32 219.32 85.32ZM238.27 81.33C237.81 81.68 237.19 81.87 236.57 81.87C235.44 81.87 234.76 81.19 234.76 79.95L234.76 74.04L238.38 74.04L238.38 70.8L234.76 70.8L234.76 67.26L230.55 67.26L230.55 70.8L228.31 70.8L228.31 74.04L230.55 74.04L230.55 80C230.55 83.46 232.55 85.22 235.98 85.22C237.27 85.22 238.54 84.92 239.41 84.3ZM248.24 85.22C252.85 85.22 256.2 82.11 256.2 77.74C256.2 73.36 252.85 70.26 248.24 70.26C243.62 70.26 240.24 73.36 240.24 77.74C240.24 82.11 243.62 85.22 248.24 85.22ZM248.24 81.76C246.13 81.76 244.51 80.25 244.51 77.74C244.51 75.23 246.13 73.71 248.24 73.71C250.34 73.71 251.93 75.23 251.93 77.74C251.93 80.25 250.34 81.76 248.24 81.76ZM266.03 85.22C269.08 85.22 271.48 83.87 272.54 81.54L269.27 79.76C268.49 81.17 267.32 81.76 266 81.76C263.87 81.76 262.19 80.28 262.19 77.74C262.19 75.2 263.87 73.71 266 73.71C267.32 73.71 268.49 74.34 269.27 75.71L272.54 73.96C271.48 71.58 269.08 70.26 266.03 70.26C261.3 70.26 257.93 73.36 257.93 77.74C257.93 82.11 261.3 85.22 266.03 85.22ZM285.68 85L290.79 85L284.2 76.63L290.25 70.47L285.23 70.47L279.07 76.31L279.07 64.97L274.86 64.97L274.86 85L279.07 85L279.07 81.3L281.09 79.3Z" /></svg>