<svg xmlns="http://www.w3.org/2000/svg" viewBox="0 0 400 150" width="400" height="150">
	<style>
		tspan { white-space:pre }
	</style>
	<path id="Total Sales Per Country " fill="#000000" aria-label="Sales Percentage For Brand"  d="M25.05 82.3C30.05 82.3 32.47 79.8 32.47 76.88C32.47 70.45 22.3 72.67 22.3 69.45C22.3 68.35 23.22 67.45 25.63 67.45C27.17 67.45 28.85 67.9 30.47 68.83L31.72 65.75C30.1 64.72 27.85 64.2 25.65 64.2C20.67 64.2 18.28 66.67 18.28 69.65C18.28 76.15 28.45 73.9 28.45 77.17C28.45 78.25 27.47 79.05 25.07 79.05C22.97 79.05 20.78 78.3 19.3 77.22L17.92 80.28C19.47 81.47 22.28 82.3 25.05 82.3ZM40.4 68.35C38.25 68.35 36.07 68.92 34.6 69.97L36 72.7C36.97 71.92 38.45 71.45 39.87 71.45C41.97 71.45 42.97 72.42 42.97 74.1L39.87 74.1C35.77 74.1 34.1 75.75 34.1 78.13C34.1 80.45 35.97 82.2 39.12 82.2C41.1 82.2 42.5 81.55 43.22 80.33L43.22 82L46.87 82L46.87 74.33C46.87 70.25 44.5 68.35 40.4 68.35ZM40.1 79.58C38.72 79.58 37.9 78.92 37.9 77.95C37.9 77.05 38.47 76.38 40.3 76.38L42.97 76.38L42.97 77.75C42.52 78.97 41.4 79.58 40.1 79.58ZM50.4 82L54.3 82L54.3 63.45L50.4 63.45ZM71.1 75.33C71.1 71 68.05 68.35 64.1 68.35C60 68.35 56.93 71.25 56.93 75.28C56.93 79.28 59.95 82.2 64.6 82.2C67.03 82.2 68.9 81.45 70.15 80.03L68.07 77.78C67.15 78.65 66.13 79.08 64.7 79.08C62.65 79.08 61.22 78.05 60.85 76.38L71.03 76.38C71.05 76.05 71.1 75.63 71.1 75.33ZM64.13 71.3C65.88 71.3 67.15 72.4 67.43 74.1L60.8 74.1C61.07 72.38 62.35 71.3 64.13 71.3ZM78.22 82.2C82.25 82.2 84.57 80.42 84.57 77.92C84.57 72.63 76.45 74.85 76.45 72.55C76.45 71.85 77.2 71.3 78.95 71.3C80.17 71.3 81.5 71.55 82.82 72.3L84.13 69.53C82.85 68.78 80.8 68.35 78.95 68.35C75.02 68.35 72.72 70.15 72.72 72.7C72.72 78.08 80.85 75.83 80.85 78.03C80.85 78.78 80.17 79.25 78.37 79.25C76.72 79.25 74.9 78.72 73.7 77.95L72.4 80.75C73.65 81.58 75.95 82.2 78.22 82.2ZM101.9 64.5L94.33 64.5L94.33 82L98.38 82L98.38 77.17L101.9 77.17C106.58 77.17 109.5 74.75 109.5 70.85C109.5 66.92 106.58 64.5 101.9 64.5ZM101.67 73.88L98.38 73.88L98.38 67.8L101.67 67.8C104.15 67.8 105.4 68.92 105.4 70.85C105.4 72.75 104.15 73.88 101.67 73.88ZM125.25 75.33C125.25 71 122.2 68.35 118.25 68.35C114.15 68.35 111.08 71.25 111.08 75.28C111.08 79.28 114.1 82.2 118.75 82.2C121.18 82.2 123.05 81.45 124.3 80.03L122.23 77.78C121.3 78.65 120.28 79.08 118.85 79.08C116.8 79.08 115.38 78.05 115 76.38L125.18 76.38C125.2 76.05 125.25 75.63 125.25 75.33ZM118.28 71.3C120.03 71.3 121.3 72.4 121.58 74.1L114.95 74.1C115.23 72.38 116.5 71.3 118.28 71.3ZM131.58 70.33L131.58 68.55L127.85 68.55L127.85 82L131.75 82L131.75 75.65C131.75 73.08 133.18 71.9 135.33 71.9C135.63 71.9 135.88 71.92 136.2 71.95L136.2 68.35C134.13 68.35 132.53 69.03 131.58 70.33ZM144.9 82.2C147.73 82.2 149.95 80.95 150.93 78.8L147.9 77.15C147.18 78.45 146.1 79 144.88 79C142.9 79 141.35 77.63 141.35 75.28C141.35 72.92 142.9 71.55 144.88 71.55C146.1 71.55 147.18 72.13 147.9 73.4L150.93 71.78C149.95 69.58 147.73 68.35 144.9 68.35C140.53 68.35 137.4 71.22 137.4 75.28C137.4 79.33 140.53 82.2 144.9 82.2ZM166.18 75.33C166.18 71 163.13 68.35 159.18 68.35C155.08 68.35 152 71.25 152 75.28C152 79.28 155.03 82.2 159.68 82.2C162.1 82.2 163.98 81.45 165.23 80.03L163.15 77.78C162.23 78.65 161.2 79.08 159.78 79.08C157.73 79.08 156.3 78.05 155.93 76.38L166.1 76.38C166.13 76.05 166.18 75.63 166.18 75.33ZM159.2 71.3C160.95 71.3 162.23 72.4 162.5 74.1L155.88 74.1C156.15 72.38 157.43 71.3 159.2 71.3ZM176.95 68.35C175.13 68.35 173.55 68.97 172.5 70.13L172.5 68.55L168.78 68.55L168.78 82L172.68 82L172.68 75.35C172.68 72.88 174.03 71.72 175.9 71.72C177.63 71.72 178.63 72.72 178.63 74.9L178.63 82L182.53 82L182.53 74.3C182.53 70.2 180.13 68.35 176.95 68.35ZM193.68 78.6C193.25 78.92 192.68 79.1 192.1 79.1C191.05 79.1 190.43 78.47 190.43 77.33L190.43 71.85L193.78 71.85L193.78 68.85L190.43 68.85L190.43 65.58L186.53 65.58L186.53 68.85L184.45 68.85L184.45 71.85L186.53 71.85L186.53 77.38C186.53 80.58 188.38 82.2 191.55 82.2C192.75 82.2 193.93 81.92 194.73 81.35ZM202.35 68.35C200.2 68.35 198.03 68.92 196.55 69.97L197.95 72.7C198.93 71.92 200.4 71.45 201.83 71.45C203.93 71.45 204.93 72.42 204.93 74.1L201.83 74.1C197.73 74.1 196.05 75.75 196.05 78.13C196.05 80.45 197.93 82.2 201.08 82.2C203.05 82.2 204.45 81.55 205.18 80.33L205.18 82L208.83 82L208.83 74.33C208.83 70.25 206.45 68.35 202.35 68.35ZM202.05 79.58C200.68 79.58 199.85 78.92 199.85 77.95C199.85 77.05 200.43 76.38 202.25 76.38L204.93 76.38L204.93 77.75C204.48 78.97 203.35 79.58 202.05 79.58ZM222.68 68.55L222.68 70.28C221.65 68.97 220.1 68.35 218.23 68.35C214.5 68.35 211.5 70.92 211.5 74.85C211.5 78.78 214.5 81.35 218.23 81.35C219.98 81.35 221.45 80.8 222.48 79.67L222.48 80.25C222.48 82.67 221.28 83.92 218.53 83.92C216.8 83.92 214.93 83.33 213.78 82.4L212.23 85.2C213.8 86.42 216.28 87.05 218.83 87.05C223.68 87.05 226.38 84.75 226.38 79.75L226.38 68.55ZM219 78.15C216.95 78.15 215.45 76.83 215.45 74.85C215.45 72.88 216.95 71.55 219 71.55C221.05 71.55 222.53 72.88 222.53 74.85C222.53 76.83 221.05 78.15 219 78.15ZM243.18 75.33C243.18 71 240.13 68.35 236.18 68.35C232.08 68.35 229 71.25 229 75.28C229 79.28 232.03 82.2 236.68 82.2C239.1 82.2 240.98 81.45 242.23 80.03L240.15 77.78C239.23 78.65 238.2 79.08 236.78 79.08C234.73 79.08 233.3 78.05 232.93 76.38L243.1 76.38C243.13 76.05 243.18 75.63 243.18 75.33ZM236.2 71.3C237.95 71.3 239.23 72.4 239.5 74.1L232.88 74.1C233.15 72.38 234.43 71.3 236.2 71.3ZM266.35 67.75L266.35 64.5L253.13 64.5L253.13 82L257.18 82L257.18 75.63L265.28 75.63L265.28 72.38L257.18 72.38L257.18 67.75ZM274.88 82.2C279.15 82.2 282.25 79.33 282.25 75.28C282.25 71.22 279.15 68.35 274.88 68.35C270.6 68.35 267.48 71.22 267.48 75.28C267.48 79.33 270.6 82.2 274.88 82.2ZM274.88 79C272.93 79 271.43 77.6 271.43 75.28C271.43 72.95 272.93 71.55 274.88 71.55C276.83 71.55 278.3 72.95 278.3 75.28C278.3 77.6 276.83 79 274.88 79ZM288.58 70.33L288.58 68.55L284.85 68.55L284.85 82L288.75 82L288.75 75.65C288.75 73.08 290.18 71.9 292.33 71.9C292.63 71.9 292.88 71.92 293.2 71.95L293.2 68.35C291.13 68.35 289.53 69.03 288.58 70.33ZM315.83 72.9C317.25 72.15 318.15 70.8 318.15 69.05C318.15 66.33 315.9 64.5 311.53 64.5L302.98 64.5L302.98 82L312.03 82C316.63 82 319.03 80.25 319.03 77.22C319.03 75.03 317.78 73.53 315.83 72.9ZM311.03 67.55C313 67.55 314.08 68.22 314.08 69.6C314.08 70.97 313 71.67 311.03 71.67L307 71.67L307 67.55ZM311.73 78.95L307 78.95L307 74.63L311.73 74.63C313.83 74.63 314.95 75.33 314.95 76.8C314.95 78.3 313.83 78.95 311.73 78.95ZM325.55 70.33L325.55 68.55L321.83 68.55L321.83 82L325.73 82L325.73 75.65C325.73 73.08 327.15 71.9 329.3 71.9C329.6 71.9 329.85 71.92 330.18 71.95L330.18 68.35C328.1 68.35 326.5 69.03 325.55 70.33ZM337.85 68.35C335.7 68.35 333.53 68.92 332.05 69.97L333.45 72.7C334.43 71.92 335.9 71.45 337.33 71.45C339.43 71.45 340.43 72.42 340.43 74.1L337.33 74.1C333.23 74.1 331.55 75.75 331.55 78.13C331.55 80.45 333.43 82.2 336.58 82.2C338.55 82.2 339.95 81.55 340.68 80.33L340.68 82L344.33 82L344.33 74.33C344.33 70.25 341.95 68.35 337.85 68.35ZM337.55 79.58C336.18 79.58 335.35 78.92 335.35 77.95C335.35 77.05 335.93 76.38 337.75 76.38L340.43 76.38L340.43 77.75C339.98 78.97 338.85 79.58 337.55 79.58ZM356.02 68.35C354.2 68.35 352.63 68.97 351.58 70.13L351.58 68.55L347.85 68.55L347.85 82L351.75 82L351.75 75.35C351.75 72.88 353.1 71.72 354.98 71.72C356.7 71.72 357.7 72.72 357.7 74.9L357.7 82L361.6 82L361.6 74.3C361.6 70.2 359.2 68.35 356.02 68.35ZM375.08 63.45L375.08 69.97C374.1 68.88 372.7 68.35 371.05 68.35C367.25 68.35 364.33 71.05 364.33 75.28C364.33 79.5 367.25 82.2 371.05 82.2C372.85 82.2 374.28 81.63 375.25 80.45L375.25 82L378.98 82L378.98 63.45ZM371.73 79C369.78 79 368.28 77.6 368.28 75.28C368.28 72.95 369.78 71.55 371.73 71.55C373.65 71.55 375.15 72.95 375.15 75.28C375.15 77.6 373.65 79 371.73 79Z" />
</svg>