<svg xmlns="http://www.w3.org/2000/svg" viewBox="0 0 400 150" width="400" height="150"><style>tspan { white-space:pre }</style><path id="Total Sales Per Store " fill="#000000" aria-label="Sales Per Store
"  d="M102.73 85.32C108.13 85.32 110.75 82.62 110.75 79.47C110.75 72.53 99.76 74.93 99.76 71.45C99.76 70.26 100.76 69.29 103.35 69.29C105.03 69.29 106.84 69.77 108.59 70.77L109.94 67.45C108.19 66.34 105.76 65.78 103.38 65.78C98.01 65.78 95.42 68.45 95.42 71.66C95.42 78.68 106.4 76.25 106.4 79.79C106.4 80.95 105.35 81.81 102.76 81.81C100.49 81.81 98.12 81 96.52 79.84L95.04 83.14C96.71 84.43 99.74 85.32 102.73 85.32ZM119.31 70.26C116.99 70.26 114.64 70.88 113.05 72.01L114.56 74.96C115.61 74.12 117.2 73.61 118.74 73.61C121.01 73.61 122.09 74.66 122.09 76.47L118.74 76.47C114.32 76.47 112.51 78.25 112.51 80.81C112.51 83.33 114.53 85.22 117.93 85.22C120.07 85.22 121.58 84.51 122.36 83.19L122.36 85L126.3 85L126.3 76.71C126.3 72.31 123.74 70.26 119.31 70.26ZM118.99 82.38C117.5 82.38 116.61 81.68 116.61 80.63C116.61 79.65 117.23 78.92 119.2 78.92L122.09 78.92L122.09 80.41C121.61 81.73 120.39 82.38 118.99 82.38ZM130.11 85L134.32 85L134.32 64.97L130.11 64.97ZM152.47 77.79C152.47 73.12 149.17 70.26 144.91 70.26C140.48 70.26 137.16 73.39 137.16 77.74C137.16 82.06 140.42 85.22 145.45 85.22C148.07 85.22 150.09 84.41 151.44 82.87L149.2 80.44C148.2 81.38 147.09 81.84 145.55 81.84C143.34 81.84 141.8 80.73 141.4 78.92L152.39 78.92C152.41 78.57 152.47 78.11 152.47 77.79ZM144.93 73.44C146.82 73.44 148.2 74.63 148.5 76.47L141.34 76.47C141.64 74.61 143.02 73.44 144.93 73.44ZM160.16 85.22C164.51 85.22 167.02 83.3 167.02 80.6C167.02 74.88 158.24 77.28 158.24 74.79C158.24 74.04 159.05 73.44 160.94 73.44C162.27 73.44 163.7 73.71 165.13 74.52L166.53 71.53C165.16 70.72 162.94 70.26 160.94 70.26C156.71 70.26 154.22 72.2 154.22 74.96C154.22 80.76 163 78.33 163 80.71C163 81.52 162.27 82.03 160.32 82.03C158.54 82.03 156.57 81.46 155.27 80.63L153.87 83.65C155.22 84.54 157.7 85.22 160.16 85.22ZM185.73 66.1L177.55 66.1L177.55 85L181.92 85L181.92 79.79L185.73 79.79C190.78 79.79 193.94 77.17 193.94 72.96C193.94 68.72 190.78 66.1 185.73 66.1ZM185.49 76.22L181.92 76.22L181.92 69.66L185.49 69.66C188.16 69.66 189.51 70.88 189.51 72.96C189.51 75.01 188.16 76.22 185.49 76.22ZM210.95 77.79C210.95 73.12 207.65 70.26 203.39 70.26C198.96 70.26 195.64 73.39 195.64 77.74C195.64 82.06 198.91 85.22 203.93 85.22C206.55 85.22 208.57 84.41 209.92 82.87L207.68 80.44C206.68 81.38 205.58 81.84 204.04 81.84C201.82 81.84 200.28 80.73 199.88 78.92L210.87 78.92C210.89 78.57 210.95 78.11 210.95 77.79ZM203.42 73.44C205.31 73.44 206.68 74.63 206.98 76.47L199.82 76.47C200.12 74.61 201.5 73.44 203.42 73.44ZM217.78 72.39L217.78 70.47L213.76 70.47L213.76 85L217.97 85L217.97 78.14C217.97 75.36 219.51 74.09 221.83 74.09C222.15 74.09 222.42 74.12 222.77 74.15L222.77 70.26C220.53 70.26 218.81 70.99 217.78 72.39ZM239.54 85.32C244.94 85.32 247.56 82.62 247.56 79.47C247.56 72.53 236.57 74.93 236.57 71.45C236.57 70.26 237.57 69.29 240.16 69.29C241.84 69.29 243.65 69.77 245.4 70.77L246.75 67.45C245 66.34 242.57 65.78 240.19 65.78C234.82 65.78 232.22 68.45 232.22 71.66C232.22 78.68 243.21 76.25 243.21 79.79C243.21 80.95 242.16 81.81 239.57 81.81C237.3 81.81 234.92 81 233.33 79.84L231.85 83.14C233.52 84.43 236.54 85.32 239.54 85.32ZM258.5 81.33C258.04 81.68 257.42 81.87 256.79 81.87C255.66 81.87 254.99 81.19 254.99 79.95L254.99 74.04L258.6 74.04L258.6 70.8L254.99 70.8L254.99 67.26L250.77 67.26L250.77 70.8L248.53 70.8L248.53 74.04L250.77 74.04L250.77 80C250.77 83.46 252.77 85.22 256.2 85.22C257.5 85.22 258.77 84.92 259.63 84.3ZM268.46 85.22C273.08 85.22 276.42 82.11 276.42 77.74C276.42 73.36 273.08 70.26 268.46 70.26C263.84 70.26 260.47 73.36 260.47 77.74C260.47 82.11 263.84 85.22 268.46 85.22ZM268.46 81.76C266.35 81.76 264.73 80.25 264.73 77.74C264.73 75.23 266.35 73.71 268.46 73.71C270.56 73.71 272.16 75.23 272.16 77.74C272.16 80.25 270.56 81.76 268.46 81.76ZM283.25 72.39L283.25 70.47L279.23 70.47L279.23 85L283.44 85L283.44 78.14C283.44 75.36 284.98 74.09 287.3 74.09C287.63 74.09 287.9 74.12 288.25 74.15L288.25 70.26C286.01 70.26 284.28 70.99 283.25 72.39ZM304.85 77.79C304.85 73.12 301.56 70.26 297.29 70.26C292.87 70.26 289.55 73.39 289.55 77.74C289.55 82.06 292.81 85.22 297.83 85.22C300.45 85.22 302.48 84.41 303.83 82.87L301.59 80.44C300.59 81.38 299.48 81.84 297.94 81.84C295.73 81.84 294.19 80.73 293.78 78.92L304.77 78.92C304.8 78.57 304.85 78.11 304.85 77.79ZM297.32 73.44C299.21 73.44 300.59 74.63 300.89 76.47L293.73 76.47C294.03 74.61 295.4 73.44 297.32 73.44Z" /></svg>