<svg xmlns="http://www.w3.org/2000/svg" viewBox="0 0 400 150" width="400" height="150">
	<style>
		tspan { white-space:pre }
	</style>
	<path id="Total Sales Per Country " fill="#000000" aria-label="Top Brands"  d="M125.28 82L129.65 82L129.65 66.66L135.7 66.66L135.7 63.1L119.23 63.1L119.23 66.66L125.28 66.66ZM143.18 82.22C147.79 82.22 151.14 79.11 151.14 74.74C151.14 70.36 147.79 67.26 143.18 67.26C138.56 67.26 135.19 70.36 135.19 74.74C135.19 79.11 138.56 82.22 143.18 82.22ZM143.18 78.76C141.07 78.76 139.45 77.25 139.45 74.74C139.45 72.23 141.07 70.71 143.18 70.71C145.28 70.71 146.88 72.23 146.88 74.74C146.88 77.25 145.28 78.76 143.18 78.76ZM162.54 67.26C160.59 67.26 159.03 67.88 157.97 69.15L157.97 67.47L153.95 67.47L153.95 87.24L158.16 87.24L158.16 80.46C159.24 81.65 160.73 82.22 162.54 82.22C166.61 82.22 169.77 79.3 169.77 74.74C169.77 70.17 166.61 67.26 162.54 67.26ZM161.81 78.76C159.7 78.76 158.11 77.25 158.11 74.74C158.11 72.23 159.7 70.71 161.81 70.71C163.91 70.71 165.51 72.23 165.51 74.74C165.51 77.25 163.91 78.76 161.81 78.76ZM194.4 72.17C195.94 71.36 196.91 69.9 196.91 68.01C196.91 65.07 194.48 63.1 189.75 63.1L180.52 63.1L180.52 82L190.29 82C195.26 82 197.85 80.11 197.85 76.84C197.85 74.47 196.5 72.85 194.4 72.17ZM189.21 66.39C191.35 66.39 192.51 67.12 192.51 68.61C192.51 70.09 191.35 70.85 189.21 70.85L184.87 70.85L184.87 66.39ZM189.97 78.71L184.87 78.71L184.87 74.03L189.97 74.03C192.24 74.03 193.45 74.79 193.45 76.38C193.45 78 192.24 78.71 189.97 78.71ZM204.9 69.39L204.9 67.47L200.88 67.47L200.88 82L205.09 82L205.09 75.14C205.09 72.36 206.63 71.09 208.95 71.09C209.27 71.09 209.54 71.12 209.89 71.15L209.89 67.26C207.65 67.26 205.93 67.99 204.9 69.39ZM218.18 67.26C215.86 67.26 213.51 67.88 211.92 69.01L213.43 71.96C214.48 71.12 216.08 70.61 217.62 70.61C219.88 70.61 220.96 71.66 220.96 73.47L217.62 73.47C213.19 73.47 211.38 75.25 211.38 77.81C211.38 80.33 213.4 82.22 216.81 82.22C218.94 82.22 220.45 81.51 221.23 80.19L221.23 82L225.18 82L225.18 73.71C225.18 69.31 222.61 67.26 218.18 67.26ZM217.86 79.38C216.37 79.38 215.48 78.68 215.48 77.63C215.48 76.65 216.1 75.92 218.08 75.92L220.96 75.92L220.96 77.41C220.48 78.73 219.26 79.38 217.86 79.38ZM237.81 67.26C235.84 67.26 234.14 67.93 233.01 69.17L233.01 67.47L228.98 67.47L228.98 82L233.2 82L233.2 74.82C233.2 72.14 234.65 70.9 236.68 70.9C238.54 70.9 239.62 71.98 239.62 74.33L239.62 82L243.83 82L243.83 73.68C243.83 69.26 241.24 67.26 237.81 67.26ZM258.39 61.97L258.39 69.01C257.33 67.83 255.82 67.26 254.04 67.26C249.94 67.26 246.78 70.17 246.78 74.74C246.78 79.3 249.94 82.22 254.04 82.22C255.98 82.22 257.52 81.59 258.58 80.33L258.58 82L262.6 82L262.6 61.97ZM254.77 78.76C252.66 78.76 251.04 77.25 251.04 74.74C251.04 72.23 252.66 70.71 254.77 70.71C256.85 70.71 258.47 72.23 258.47 74.74C258.47 77.25 256.85 78.76 254.77 78.76ZM271.37 82.22C275.72 82.22 278.23 80.3 278.23 77.6C278.23 71.88 269.46 74.28 269.46 71.79C269.46 71.04 270.27 70.44 272.16 70.44C273.48 70.44 274.91 70.71 276.34 71.52L277.75 68.53C276.37 67.72 274.15 67.26 272.16 67.26C267.92 67.26 265.43 69.2 265.43 71.96C265.43 77.76 274.21 75.33 274.21 77.71C274.21 78.52 273.48 79.03 271.54 79.03C269.75 79.03 267.78 78.46 266.49 77.63L265.08 80.65C266.43 81.54 268.92 82.22 271.37 82.22Z" />
</svg>