<svg xmlns="http://www.w3.org/2000/svg" viewBox="0 0 400 150" width="400" height="150">
	<style>
		tspan { white-space:pre }
	</style>
	<path id="Total Sales Per Country " fill="#000000" aria-label="Top Products"  d="M111.55 82L115.92 82L115.92 66.66L121.97 66.66L121.97 63.1L105.5 63.1L105.5 66.66L111.55 66.66ZM129.45 82.22C134.06 82.22 137.41 79.11 137.41 74.74C137.41 70.36 134.06 67.26 129.45 67.26C124.83 67.26 121.46 70.36 121.46 74.74C121.46 79.11 124.83 82.22 129.45 82.22ZM129.45 78.76C127.34 78.76 125.72 77.25 125.72 74.74C125.72 72.23 127.34 70.71 129.45 70.71C131.55 70.71 133.15 72.23 133.15 74.74C133.15 77.25 131.55 78.76 129.45 78.76ZM148.81 67.26C146.86 67.26 145.3 67.88 144.24 69.15L144.24 67.47L140.22 67.47L140.22 87.24L144.43 87.24L144.43 80.46C145.51 81.65 147 82.22 148.81 82.22C152.88 82.22 156.04 79.3 156.04 74.74C156.04 70.17 152.88 67.26 148.81 67.26ZM148.08 78.76C145.97 78.76 144.38 77.25 144.38 74.74C144.38 72.23 145.97 70.71 148.08 70.71C150.18 70.71 151.78 72.23 151.78 74.74C151.78 77.25 150.18 78.76 148.08 78.76ZM174.97 63.1L166.79 63.1L166.79 82L171.16 82L171.16 76.79L174.97 76.79C180.02 76.79 183.18 74.17 183.18 69.96C183.18 65.72 180.02 63.1 174.97 63.1ZM174.73 73.22L171.16 73.22L171.16 66.66L174.73 66.66C177.4 66.66 178.75 67.88 178.75 69.96C178.75 72.01 177.4 73.22 174.73 73.22ZM190.01 69.39L190.01 67.47L185.99 67.47L185.99 82L190.2 82L190.2 75.14C190.2 72.36 191.74 71.09 194.06 71.09C194.38 71.09 194.65 71.12 195 71.15L195 67.26C192.76 67.26 191.03 67.99 190.01 69.39ZM204.29 82.22C208.91 82.22 212.26 79.11 212.26 74.74C212.26 70.36 208.91 67.26 204.29 67.26C199.68 67.26 196.3 70.36 196.3 74.74C196.3 79.11 199.68 82.22 204.29 82.22ZM204.29 78.76C202.19 78.76 200.57 77.25 200.57 74.74C200.57 72.23 202.19 70.71 204.29 70.71C206.4 70.71 207.99 72.23 207.99 74.74C207.99 77.25 206.4 78.76 204.29 78.76ZM225.65 61.97L225.65 69.01C224.6 67.83 223.08 67.26 221.3 67.26C217.2 67.26 214.04 70.17 214.04 74.74C214.04 79.3 217.2 82.22 221.3 82.22C223.25 82.22 224.78 81.59 225.84 80.33L225.84 82L229.86 82L229.86 61.97ZM222.03 78.76C219.93 78.76 218.31 77.25 218.31 74.74C218.31 72.23 219.93 70.71 222.03 70.71C224.11 70.71 225.73 72.23 225.73 74.74C225.73 77.25 224.11 78.76 222.03 78.76ZM244.17 67.47L244.17 74.66C244.17 77.33 242.77 78.57 240.82 78.57C238.96 78.57 237.88 77.49 237.88 75.06L237.88 67.47L233.67 67.47L233.67 75.68C233.67 80.16 236.23 82.22 239.88 82.22C241.66 82.22 243.28 81.54 244.39 80.27L244.39 82L248.38 82L248.38 67.47ZM259.32 82.22C262.37 82.22 264.77 80.87 265.82 78.54L262.56 76.76C261.77 78.17 260.61 78.76 259.29 78.76C257.16 78.76 255.48 77.28 255.48 74.74C255.48 72.2 257.16 70.71 259.29 70.71C260.61 70.71 261.77 71.34 262.56 72.71L265.82 70.96C264.77 68.58 262.37 67.26 259.32 67.26C254.59 67.26 251.22 70.36 251.22 74.74C251.22 79.11 254.59 82.22 259.32 82.22ZM276.71 78.33C276.25 78.68 275.63 78.87 275 78.87C273.87 78.87 273.2 78.19 273.2 76.95L273.2 71.04L276.81 71.04L276.81 67.8L273.2 67.8L273.2 64.26L268.98 64.26L268.98 67.8L266.74 67.8L266.74 71.04L268.98 71.04L268.98 77C268.98 80.46 270.98 82.22 274.41 82.22C275.71 82.22 276.98 81.92 277.84 81.3ZM285.1 82.22C289.45 82.22 291.96 80.3 291.96 77.6C291.96 71.88 283.19 74.28 283.19 71.79C283.19 71.04 284 70.44 285.89 70.44C287.21 70.44 288.64 70.71 290.07 71.52L291.48 68.53C290.1 67.72 287.88 67.26 285.89 67.26C281.65 67.26 279.16 69.2 279.16 71.96C279.16 77.76 287.94 75.33 287.94 77.71C287.94 78.52 287.21 79.03 285.26 79.03C283.48 79.03 281.51 78.46 280.22 77.63L278.81 80.65C280.16 81.54 282.65 82.22 285.1 82.22Z" />
</svg>