<svg xmlns="http://www.w3.org/2000/svg" viewBox="0 0 400 150" width="400" height="150">
	<style>
		tspan { white-space:pre }
	</style>
	<path id="Total Sales Per Country " fill="#000000" aria-label="Total Sales Per Country"  d="M41.17 82L45.55 82L45.55 66.66L51.59 66.66L51.59 63.1L35.12 63.1L35.12 66.66L41.17 66.66ZM59.07 82.22C63.69 82.22 67.04 79.11 67.04 74.74C67.04 70.36 63.69 67.26 59.07 67.26C54.46 67.26 51.08 70.36 51.08 74.74C51.08 79.11 54.46 82.22 59.07 82.22ZM59.07 78.76C56.97 78.76 55.35 77.25 55.35 74.74C55.35 72.23 56.97 70.71 59.07 70.71C61.18 70.71 62.77 72.23 62.77 74.74C62.77 77.25 61.18 78.76 59.07 78.76ZM78.08 78.33C77.62 78.68 77 78.87 76.38 78.87C75.25 78.87 74.57 78.19 74.57 76.95L74.57 71.04L78.19 71.04L78.19 67.8L74.57 67.8L74.57 64.26L70.36 64.26L70.36 67.8L68.12 67.8L68.12 71.04L70.36 71.04L70.36 77C70.36 80.46 72.36 82.22 75.79 82.22C77.08 82.22 78.35 81.92 79.21 81.3ZM87.45 67.26C85.13 67.26 82.78 67.88 81.19 69.01L82.7 71.96C83.75 71.12 85.34 70.61 86.88 70.61C89.15 70.61 90.23 71.66 90.23 73.47L86.88 73.47C82.45 73.47 80.65 75.25 80.65 77.81C80.65 80.33 82.67 82.22 86.07 82.22C88.21 82.22 89.72 81.51 90.5 80.19L90.5 82L94.44 82L94.44 73.71C94.44 69.31 91.88 67.26 87.45 67.26ZM87.13 79.38C85.64 79.38 84.75 78.68 84.75 77.63C84.75 76.65 85.37 75.92 87.34 75.92L90.23 75.92L90.23 77.41C89.74 78.73 88.53 79.38 87.13 79.38ZM98.25 82L102.46 82L102.46 61.97L98.25 61.97ZM120.52 82.32C125.92 82.32 128.54 79.62 128.54 76.47C128.54 69.53 117.55 71.93 117.55 68.45C117.55 67.26 118.55 66.29 121.15 66.29C122.82 66.29 124.63 66.77 126.38 67.77L127.73 64.45C125.98 63.34 123.55 62.78 121.17 62.78C115.8 62.78 113.21 65.45 113.21 68.66C113.21 75.68 124.2 73.25 124.2 76.79C124.2 77.95 123.14 78.81 120.55 78.81C118.28 78.81 115.91 78 114.31 76.84L112.83 80.14C114.5 81.43 117.53 82.32 120.52 82.32ZM137.1 67.26C134.78 67.26 132.43 67.88 130.84 69.01L132.35 71.96C133.4 71.12 135 70.61 136.54 70.61C138.8 70.61 139.88 71.66 139.88 73.47L136.54 73.47C132.11 73.47 130.3 75.25 130.3 77.81C130.3 80.33 132.32 82.22 135.73 82.22C137.86 82.22 139.37 81.51 140.15 80.19L140.15 82L144.1 82L144.1 73.71C144.1 69.31 141.53 67.26 137.1 67.26ZM136.78 79.38C135.29 79.38 134.4 78.68 134.4 77.63C134.4 76.65 135.02 75.92 136.99 75.92L139.88 75.92L139.88 77.41C139.4 78.73 138.18 79.38 136.78 79.38ZM147.9 82L152.11 82L152.11 61.97L147.9 61.97ZM170.26 74.79C170.26 70.12 166.96 67.26 162.7 67.26C158.27 67.26 154.95 70.39 154.95 74.74C154.95 79.06 158.22 82.22 163.24 82.22C165.86 82.22 167.88 81.41 169.23 79.87L166.99 77.44C165.99 78.38 164.89 78.84 163.35 78.84C161.13 78.84 159.59 77.73 159.19 75.92L170.18 75.92C170.2 75.57 170.26 75.11 170.26 74.79ZM162.73 70.44C164.62 70.44 165.99 71.63 166.29 73.47L159.13 73.47C159.43 71.61 160.81 70.44 162.73 70.44ZM177.95 82.22C182.3 82.22 184.81 80.3 184.81 77.6C184.81 71.88 176.04 74.28 176.04 71.79C176.04 71.04 176.85 70.44 178.74 70.44C180.06 70.44 181.49 70.71 182.92 71.52L184.33 68.53C182.95 67.72 180.73 67.26 178.74 67.26C174.5 67.26 172.01 69.2 172.01 71.96C172.01 77.76 180.79 75.33 180.79 77.71C180.79 78.52 180.06 79.03 178.12 79.03C176.33 79.03 174.36 78.46 173.07 77.63L171.66 80.65C173.01 81.54 175.5 82.22 177.95 82.22ZM203.52 63.1L195.34 63.1L195.34 82L199.72 82L199.72 76.79L203.52 76.79C208.57 76.79 211.73 74.17 211.73 69.96C211.73 65.72 208.57 63.1 203.52 63.1ZM203.28 73.22L199.72 73.22L199.72 66.66L203.28 66.66C205.95 66.66 207.3 67.88 207.3 69.96C207.3 72.01 205.95 73.22 203.28 73.22ZM228.74 74.79C228.74 70.12 225.45 67.26 221.18 67.26C216.75 67.26 213.43 70.39 213.43 74.74C213.43 79.06 216.7 82.22 221.72 82.22C224.34 82.22 226.36 81.41 227.71 79.87L225.47 77.44C224.47 78.38 223.37 78.84 221.83 78.84C219.61 78.84 218.08 77.73 217.67 75.92L228.66 75.92C228.69 75.57 228.74 75.11 228.74 74.79ZM221.21 70.44C223.1 70.44 224.47 71.63 224.77 73.47L217.62 73.47C217.91 71.61 219.29 70.44 221.21 70.44ZM235.57 69.39L235.57 67.47L231.55 67.47L231.55 82L235.76 82L235.76 75.14C235.76 72.36 237.3 71.09 239.62 71.09C239.95 71.09 240.22 71.12 240.57 71.15L240.57 67.26C238.33 67.26 236.6 67.99 235.57 69.39ZM260.17 82.32C263.46 82.32 266.19 81.14 267.97 78.95L265.16 76.36C263.89 77.84 262.3 78.6 260.41 78.6C256.87 78.6 254.36 76.11 254.36 72.55C254.36 68.99 256.87 66.5 260.41 66.5C262.3 66.5 263.89 67.26 265.16 68.72L267.97 66.12C266.19 63.96 263.46 62.78 260.2 62.78C254.31 62.78 249.94 66.85 249.94 72.55C249.94 78.25 254.31 82.32 260.17 82.32ZM277.02 82.22C281.63 82.22 284.98 79.11 284.98 74.74C284.98 70.36 281.63 67.26 277.02 67.26C272.4 67.26 269.02 70.36 269.02 74.74C269.02 79.11 272.4 82.22 277.02 82.22ZM277.02 78.76C274.91 78.76 273.29 77.25 273.29 74.74C273.29 72.23 274.91 70.71 277.02 70.71C279.12 70.71 280.72 72.23 280.72 74.74C280.72 77.25 279.12 78.76 277.02 78.76ZM298.21 67.47L298.21 74.66C298.21 77.33 296.81 78.57 294.86 78.57C293 78.57 291.92 77.49 291.92 75.06L291.92 67.47L287.71 67.47L287.71 75.68C287.71 80.16 290.27 82.22 293.92 82.22C295.7 82.22 297.32 81.54 298.43 80.27L298.43 82L302.42 82L302.42 67.47ZM315.17 67.26C313.2 67.26 311.5 67.93 310.36 69.17L310.36 67.47L306.34 67.47L306.34 82L310.55 82L310.55 74.82C310.55 72.14 312.01 70.9 314.03 70.9C315.9 70.9 316.98 71.98 316.98 74.33L316.98 82L321.19 82L321.19 73.68C321.19 69.26 318.6 67.26 315.17 67.26ZM333.23 78.33C332.77 78.68 332.15 78.87 331.53 78.87C330.4 78.87 329.72 78.19 329.72 76.95L329.72 71.04L333.34 71.04L333.34 67.8L329.72 67.8L329.72 64.26L325.51 64.26L325.51 67.8L323.27 67.8L323.27 71.04L325.51 71.04L325.51 77C325.51 80.46 327.51 82.22 330.94 82.22C332.23 82.22 333.5 81.92 334.36 81.3ZM340.76 69.39L340.76 67.47L336.74 67.47L336.74 82L340.95 82L340.95 75.14C340.95 72.36 342.49 71.09 344.81 71.09C345.14 71.09 345.41 71.12 345.76 71.15L345.76 67.26C343.52 67.26 341.79 67.99 340.76 69.39ZM359.15 67.47L355.05 77.33L350.97 67.47L346.62 67.47L352.91 82.11L352.86 82.24C352.29 83.54 351.64 84.05 350.48 84.05C349.65 84.05 348.76 83.7 348.11 83.13L346.57 86.13C347.51 86.97 349.13 87.45 350.62 87.45C353.24 87.45 355.24 86.4 356.64 82.89L363.2 67.47Z" />
</svg>