<svg xmlns="http://www.w3.org/2000/svg" viewBox="0 0 400 150" width="400" height="150"><style>tspan { white-space:pre }</style><path id="Total Sales Per Store " fill="#000000" aria-label="Total Sales
"  d="M130.93 85L135.31 85L135.31 69.66L141.36 69.66L141.36 66.1L124.89 66.1L124.89 69.66L130.93 69.66ZM148.84 85.22C153.45 85.22 156.8 82.11 156.8 77.74C156.8 73.36 153.45 70.26 148.84 70.26C144.22 70.26 140.84 73.36 140.84 77.74C140.84 82.11 144.22 85.22 148.84 85.22ZM148.84 81.76C146.73 81.76 145.11 80.25 145.11 77.74C145.11 75.23 146.73 73.71 148.84 73.71C150.94 73.71 152.53 75.23 152.53 77.74C152.53 80.25 150.94 81.76 148.84 81.76ZM167.84 81.33C167.38 81.68 166.76 81.87 166.14 81.87C165.01 81.87 164.33 81.19 164.33 79.95L164.33 74.04L167.95 74.04L167.95 70.8L164.33 70.8L164.33 67.26L160.12 67.26L160.12 70.8L157.88 70.8L157.88 74.04L160.12 74.04L160.12 80C160.12 83.46 162.12 85.22 165.55 85.22C166.84 85.22 168.11 84.92 168.98 84.3ZM177.21 70.26C174.89 70.26 172.54 70.88 170.95 72.01L172.46 74.96C173.51 74.12 175.11 73.61 176.65 73.61C178.91 73.61 179.99 74.66 179.99 76.47L176.65 76.47C172.22 76.47 170.41 78.25 170.41 80.81C170.41 83.33 172.43 85.22 175.84 85.22C177.97 85.22 179.48 84.51 180.26 83.19L180.26 85L184.2 85L184.2 76.71C184.2 72.31 181.64 70.26 177.21 70.26ZM176.89 82.38C175.4 82.38 174.51 81.68 174.51 80.63C174.51 79.65 175.13 78.92 177.1 78.92L179.99 78.92L179.99 80.41C179.51 81.73 178.29 82.38 176.89 82.38ZM188.01 85L192.22 85L192.22 64.97L188.01 64.97ZM210.29 85.32C215.69 85.32 218.31 82.62 218.31 79.47C218.31 72.53 207.32 74.93 207.32 71.45C207.32 70.26 208.32 69.29 210.91 69.29C212.58 69.29 214.39 69.77 216.15 70.77L217.5 67.45C215.74 66.34 213.31 65.78 210.94 65.78C205.56 65.78 202.97 68.45 202.97 71.66C202.97 78.68 213.96 76.25 213.96 79.79C213.96 80.95 212.91 81.81 210.31 81.81C208.05 81.81 205.67 81 204.08 79.84L202.59 83.14C204.27 84.43 207.29 85.32 210.29 85.32ZM226.86 70.26C224.54 70.26 222.19 70.88 220.6 72.01L222.11 74.96C223.17 74.12 224.76 73.61 226.3 73.61C228.57 73.61 229.65 74.66 229.65 76.47L226.3 76.47C221.87 76.47 220.06 78.25 220.06 80.81C220.06 83.33 222.09 85.22 225.49 85.22C227.62 85.22 229.13 84.51 229.92 83.19L229.92 85L233.86 85L233.86 76.71C233.86 72.31 231.29 70.26 226.86 70.26ZM226.54 82.38C225.06 82.38 224.16 81.68 224.16 80.63C224.16 79.65 224.79 78.92 226.76 78.92L229.65 78.92L229.65 80.41C229.16 81.73 227.94 82.38 226.54 82.38ZM237.66 85L241.88 85L241.88 64.97L237.66 64.97ZM260.02 77.79C260.02 73.12 256.73 70.26 252.46 70.26C248.03 70.26 244.71 73.39 244.71 77.74C244.71 82.06 247.98 85.22 253 85.22C255.62 85.22 257.64 84.41 259 82.87L256.75 80.44C255.75 81.38 254.65 81.84 253.11 81.84C250.89 81.84 249.36 80.73 248.95 78.92L259.94 78.92C259.97 78.57 260.02 78.11 260.02 77.79ZM252.49 73.44C254.38 73.44 255.75 74.63 256.05 76.47L248.9 76.47C249.19 74.61 250.57 73.44 252.49 73.44ZM267.72 85.22C272.06 85.22 274.57 83.3 274.57 80.6C274.57 74.88 265.8 77.28 265.8 74.79C265.8 74.04 266.61 73.44 268.5 73.44C269.82 73.44 271.25 73.71 272.68 74.52L274.09 71.53C272.71 70.72 270.5 70.26 268.5 70.26C264.26 70.26 261.78 72.2 261.78 74.96C261.78 80.76 270.55 78.33 270.55 80.71C270.55 81.52 269.82 82.03 267.88 82.03C266.1 82.03 264.13 81.46 262.83 80.63L261.43 83.65C262.77 84.54 265.26 85.22 267.72 85.22Z" /></svg>