<svg xmlns="http://www.w3.org/2000/svg" viewBox="0 0 400 150" width="400" height="150">
	<style>
		tspan { white-space:pre }
	</style>
	<path id="Total Sales Per Store " fill="#000000" aria-label="Total Sales Per Store"  d="M61.91 82L66.28 82L66.28 66.66L72.33 66.66L72.33 63.1L55.86 63.1L55.86 66.66L61.91 66.66ZM79.81 82.22C84.43 82.22 87.77 79.11 87.77 74.74C87.77 70.36 84.43 67.26 79.81 67.26C75.19 67.26 71.82 70.36 71.82 74.74C71.82 79.11 75.19 82.22 79.81 82.22ZM79.81 78.76C77.7 78.76 76.08 77.25 76.08 74.74C76.08 72.23 77.7 70.71 79.81 70.71C81.92 70.71 83.51 72.23 83.51 74.74C83.51 77.25 81.92 78.76 79.81 78.76ZM98.82 78.33C98.36 78.68 97.74 78.87 97.12 78.87C95.98 78.87 95.31 78.19 95.31 76.95L95.31 71.04L98.93 71.04L98.93 67.8L95.31 67.8L95.31 64.26L91.1 64.26L91.1 67.8L88.85 67.8L88.85 71.04L91.1 71.04L91.1 77C91.1 80.46 93.09 82.22 96.52 82.22C97.82 82.22 99.09 81.92 99.95 81.3ZM108.19 67.26C105.86 67.26 103.52 67.88 101.92 69.01L103.43 71.96C104.49 71.12 106.08 70.61 107.62 70.61C109.89 70.61 110.97 71.66 110.97 73.47L107.62 73.47C103.19 73.47 101.38 75.25 101.38 77.81C101.38 80.33 103.41 82.22 106.81 82.22C108.94 82.22 110.45 81.51 111.24 80.19L111.24 82L115.18 82L115.18 73.71C115.18 69.31 112.61 67.26 108.19 67.26ZM107.86 79.38C106.38 79.38 105.49 78.68 105.49 77.63C105.49 76.65 106.11 75.92 108.08 75.92L110.97 75.92L110.97 77.41C110.48 78.73 109.27 79.38 107.86 79.38ZM118.99 82L123.2 82L123.2 61.97L118.99 61.97ZM141.26 82.32C146.66 82.32 149.28 79.62 149.28 76.47C149.28 69.53 138.29 71.93 138.29 68.45C138.29 67.26 139.29 66.29 141.88 66.29C143.56 66.29 145.37 66.77 147.12 67.77L148.47 64.45C146.72 63.34 144.29 62.78 141.91 62.78C136.54 62.78 133.94 65.45 133.94 68.66C133.94 75.68 144.93 73.25 144.93 76.79C144.93 77.95 143.88 78.81 141.29 78.81C139.02 78.81 136.64 78 135.05 76.84L133.57 80.14C135.24 81.43 138.26 82.32 141.26 82.32ZM157.84 67.26C155.52 67.26 153.17 67.88 151.58 69.01L153.09 71.96C154.14 71.12 155.73 70.61 157.27 70.61C159.54 70.61 160.62 71.66 160.62 73.47L157.27 73.47C152.84 73.47 151.04 75.25 151.04 77.81C151.04 80.33 153.06 82.22 156.46 82.22C158.6 82.22 160.11 81.51 160.89 80.19L160.89 82L164.83 82L164.83 73.71C164.83 69.31 162.27 67.26 157.84 67.26ZM157.52 79.38C156.03 79.38 155.14 78.68 155.14 77.63C155.14 76.65 155.76 75.92 157.73 75.92L160.62 75.92L160.62 77.41C160.13 78.73 158.92 79.38 157.52 79.38ZM168.64 82L172.85 82L172.85 61.97L168.64 61.97ZM191 74.79C191 70.12 187.7 67.26 183.44 67.26C179.01 67.26 175.69 70.39 175.69 74.74C175.69 79.06 178.95 82.22 183.98 82.22C186.59 82.22 188.62 81.41 189.97 79.87L187.73 77.44C186.73 78.38 185.62 78.84 184.08 78.84C181.87 78.84 180.33 77.73 179.93 75.92L190.91 75.92C190.94 75.57 191 75.11 191 74.79ZM183.46 70.44C185.35 70.44 186.73 71.63 187.03 73.47L179.87 73.47C180.17 71.61 181.55 70.44 183.46 70.44ZM198.69 82.22C203.04 82.22 205.55 80.3 205.55 77.6C205.55 71.88 196.77 74.28 196.77 71.79C196.77 71.04 197.58 70.44 199.47 70.44C200.8 70.44 202.23 70.71 203.66 71.52L205.06 68.53C203.69 67.72 201.47 67.26 199.47 67.26C195.23 67.26 192.75 69.2 192.75 71.96C192.75 77.76 201.53 75.33 201.53 77.71C201.53 78.52 200.8 79.03 198.85 79.03C197.07 79.03 195.1 78.46 193.8 77.63L192.4 80.65C193.75 81.54 196.23 82.22 198.69 82.22ZM224.26 63.1L216.08 63.1L216.08 82L220.45 82L220.45 76.79L224.26 76.79C229.31 76.79 232.47 74.17 232.47 69.96C232.47 65.72 229.31 63.1 224.26 63.1ZM224.02 73.22L220.45 73.22L220.45 66.66L224.02 66.66C226.69 66.66 228.04 67.88 228.04 69.96C228.04 72.01 226.69 73.22 224.02 73.22ZM249.48 74.79C249.48 70.12 246.18 67.26 241.92 67.26C237.49 67.26 234.17 70.39 234.17 74.74C234.17 79.06 237.44 82.22 242.46 82.22C245.08 82.22 247.1 81.41 248.45 79.87L246.21 77.44C245.21 78.38 244.1 78.84 242.57 78.84C240.35 78.84 238.81 77.73 238.41 75.92L249.4 75.92C249.42 75.57 249.48 75.11 249.48 74.79ZM241.94 70.44C243.83 70.44 245.21 71.63 245.51 73.47L238.35 73.47C238.65 71.61 240.03 70.44 241.94 70.44ZM256.31 69.39L256.31 67.47L252.29 67.47L252.29 82L256.5 82L256.5 75.14C256.5 72.36 258.04 71.09 260.36 71.09C260.68 71.09 260.95 71.12 261.3 71.15L261.3 67.26C259.06 67.26 257.33 67.99 256.31 69.39ZM278.07 82.32C283.47 82.32 286.09 79.62 286.09 76.47C286.09 69.53 275.1 71.93 275.1 68.45C275.1 67.26 276.1 66.29 278.69 66.29C280.37 66.29 282.17 66.77 283.93 67.77L285.28 64.45C283.52 63.34 281.09 62.78 278.72 62.78C273.35 62.78 270.75 65.45 270.75 68.66C270.75 75.68 281.74 73.25 281.74 76.79C281.74 77.95 280.69 78.81 278.1 78.81C275.83 78.81 273.45 78 271.86 76.84L270.38 80.14C272.05 81.43 275.07 82.32 278.07 82.32ZM297.02 78.33C296.57 78.68 295.94 78.87 295.32 78.87C294.19 78.87 293.51 78.19 293.51 76.95L293.51 71.04L297.13 71.04L297.13 67.8L293.51 67.8L293.51 64.26L289.3 64.26L289.3 67.8L287.06 67.8L287.06 71.04L289.3 71.04L289.3 77C289.3 80.46 291.3 82.22 294.73 82.22C296.03 82.22 297.29 81.92 298.16 81.3ZM306.99 82.22C311.6 82.22 314.95 79.11 314.95 74.74C314.95 70.36 311.6 67.26 306.99 67.26C302.37 67.26 299 70.36 299 74.74C299 79.11 302.37 82.22 306.99 82.22ZM306.99 78.76C304.88 78.76 303.26 77.25 303.26 74.74C303.26 72.23 304.88 70.71 306.99 70.71C309.09 70.71 310.69 72.23 310.69 74.74C310.69 77.25 309.09 78.76 306.99 78.76ZM321.78 69.39L321.78 67.47L317.76 67.47L317.76 82L321.97 82L321.97 75.14C321.97 72.36 323.51 71.09 325.83 71.09C326.16 71.09 326.43 71.12 326.78 71.15L326.78 67.26C324.54 67.26 322.81 67.99 321.78 69.39ZM343.38 74.79C343.38 70.12 340.09 67.26 335.82 67.26C331.4 67.26 328.07 70.39 328.07 74.74C328.07 79.06 331.34 82.22 336.36 82.22C338.98 82.22 341.01 81.41 342.36 79.87L340.12 77.44C339.12 78.38 338.01 78.84 336.47 78.84C334.26 78.84 332.72 77.73 332.31 75.92L343.3 75.92C343.33 75.57 343.38 75.11 343.38 74.79ZM335.85 70.44C337.74 70.44 339.12 71.63 339.41 73.47L332.26 73.47C332.56 71.61 333.93 70.44 335.85 70.44Z" />
</svg>