<svg xmlns="http://www.w3.org/2000/svg" viewBox="0 0 400 150" width="400" height="150"><style>tspan { white-space:pre }</style><path id="Total Sales Per Store " fill="#000000" aria-label="Total OnHand Amount
"  d="M47.19 85L51.57 85L51.57 69.66L57.62 69.66L57.62 66.1L41.15 66.1L41.15 69.66L47.19 69.66ZM65.09 85.22C69.71 85.22 73.06 82.11 73.06 77.74C73.06 73.36 69.71 70.26 65.09 70.26C60.48 70.26 57.1 73.36 57.1 77.74C57.1 82.11 60.48 85.22 65.09 85.22ZM65.09 81.76C62.99 81.76 61.37 80.25 61.37 77.74C61.37 75.23 62.99 73.71 65.09 73.71C67.2 73.71 68.79 75.23 68.79 77.74C68.79 80.25 67.2 81.76 65.09 81.76ZM84.1 81.33C83.64 81.68 83.02 81.87 82.4 81.87C81.27 81.87 80.59 81.19 80.59 79.95L80.59 74.04L84.21 74.04L84.21 70.8L80.59 70.8L80.59 67.26L76.38 67.26L76.38 70.8L74.14 70.8L74.14 74.04L76.38 74.04L76.38 80C76.38 83.46 78.38 85.22 81.81 85.22C83.1 85.22 84.37 84.92 85.24 84.3ZM93.47 70.26C91.15 70.26 88.8 70.88 87.21 72.01L88.72 74.96C89.77 74.12 91.37 73.61 92.9 73.61C95.17 73.61 96.25 74.66 96.25 76.47L92.9 76.47C88.48 76.47 86.67 78.25 86.67 80.81C86.67 83.33 88.69 85.22 92.09 85.22C94.23 85.22 95.74 84.51 96.52 83.19L96.52 85L100.46 85L100.46 76.71C100.46 72.31 97.9 70.26 93.47 70.26ZM93.15 82.38C91.66 82.38 90.77 81.68 90.77 80.63C90.77 79.65 91.39 78.92 93.36 78.92L96.25 78.92L96.25 80.41C95.77 81.73 94.55 82.38 93.15 82.38ZM104.27 85L108.48 85L108.48 64.97L104.27 64.97ZM129.49 85.32C135.43 85.32 139.83 81.19 139.83 75.55C139.83 69.91 135.43 65.78 129.49 65.78C123.52 65.78 119.15 69.93 119.15 75.55C119.15 81.17 123.52 85.32 129.49 85.32ZM129.49 81.6C126.11 81.6 123.58 79.14 123.58 75.55C123.58 71.96 126.11 69.5 129.49 69.5C132.86 69.5 135.4 71.96 135.4 75.55C135.4 79.14 132.86 81.6 129.49 81.6ZM151.66 70.26C149.69 70.26 147.98 70.93 146.85 72.17L146.85 70.47L142.83 70.47L142.83 85L147.04 85L147.04 77.82C147.04 75.14 148.5 73.9 150.52 73.9C152.39 73.9 153.47 74.98 153.47 77.33L153.47 85L157.68 85L157.68 76.68C157.68 72.26 155.09 70.26 151.66 70.26ZM174.74 66.1L174.74 73.55L166.16 73.55L166.16 66.1L161.78 66.1L161.78 85L166.16 85L166.16 77.25L174.74 77.25L174.74 85L179.12 85L179.12 66.1ZM189.16 70.26C186.84 70.26 184.49 70.88 182.9 72.01L184.41 74.96C185.46 74.12 187.05 73.61 188.59 73.61C190.86 73.61 191.94 74.66 191.94 76.47L188.59 76.47C184.16 76.47 182.36 78.25 182.36 80.81C182.36 83.33 184.38 85.22 187.78 85.22C189.92 85.22 191.43 84.51 192.21 83.19L192.21 85L196.15 85L196.15 76.71C196.15 72.31 193.59 70.26 189.16 70.26ZM188.84 82.38C187.35 82.38 186.46 81.68 186.46 80.63C186.46 79.65 187.08 78.92 189.05 78.92L191.94 78.92L191.94 80.41C191.45 81.73 190.24 82.38 188.84 82.38ZM208.79 70.26C206.82 70.26 205.12 70.93 203.98 72.17L203.98 70.47L199.96 70.47L199.96 85L204.17 85L204.17 77.82C204.17 75.14 205.63 73.9 207.65 73.9C209.52 73.9 210.6 74.98 210.6 77.33L210.6 85L214.81 85L214.81 76.68C214.81 72.26 212.22 70.26 208.79 70.26ZM229.36 64.97L229.36 72.01C228.31 70.83 226.8 70.26 225.02 70.26C220.91 70.26 217.75 73.17 217.75 77.74C217.75 82.3 220.91 85.22 225.02 85.22C226.96 85.22 228.5 84.59 229.55 83.33L229.55 85L233.57 85L233.57 64.97ZM225.74 81.76C223.64 81.76 222.02 80.25 222.02 77.74C222.02 75.23 223.64 73.71 225.74 73.71C227.82 73.71 229.44 75.23 229.44 77.74C229.44 80.25 227.82 81.76 225.74 81.76ZM259.52 85L264.11 85L255.66 66.1L251.34 66.1L242.92 85L247.4 85L249.07 80.95L257.85 80.95ZM250.48 77.63L253.47 70.39L256.47 77.63ZM284.39 70.26C282.2 70.26 280.31 71.15 279.15 72.63C278.12 71.04 276.4 70.26 274.37 70.26C272.51 70.26 270.89 70.91 269.81 72.15L269.81 70.47L265.79 70.47L265.79 85L270 85L270 77.71C270 75.12 271.32 73.9 273.18 73.9C274.94 73.9 275.94 74.98 275.94 77.33L275.94 85L280.15 85L280.15 77.71C280.15 75.12 281.47 73.9 283.36 73.9C285.06 73.9 286.12 74.98 286.12 77.33L286.12 85L290.33 85L290.33 76.68C290.33 72.26 287.84 70.26 284.39 70.26ZM301.18 85.22C305.8 85.22 309.15 82.11 309.15 77.74C309.15 73.36 305.8 70.26 301.18 70.26C296.57 70.26 293.19 73.36 293.19 77.74C293.19 82.11 296.57 85.22 301.18 85.22ZM301.18 81.76C299.08 81.76 297.46 80.25 297.46 77.74C297.46 75.23 299.08 73.71 301.18 73.71C303.29 73.71 304.88 75.23 304.88 77.74C304.88 80.25 303.29 81.76 301.18 81.76ZM322.38 70.47L322.38 77.66C322.38 80.33 320.97 81.57 319.03 81.57C317.17 81.57 316.09 80.49 316.09 78.06L316.09 70.47L311.87 70.47L311.87 78.68C311.87 83.16 314.44 85.22 318.08 85.22C319.87 85.22 321.49 84.54 322.59 83.27L322.59 85L326.59 85L326.59 70.47ZM339.33 70.26C337.36 70.26 335.66 70.93 334.53 72.17L334.53 70.47L330.5 70.47L330.5 85L334.72 85L334.72 77.82C334.72 75.14 336.17 73.9 338.2 73.9C340.06 73.9 341.14 74.98 341.14 77.33L341.14 85L345.35 85L345.35 76.68C345.35 72.26 342.76 70.26 339.33 70.26ZM357.4 81.33C356.94 81.68 356.32 81.87 355.7 81.87C354.56 81.87 353.89 81.19 353.89 79.95L353.89 74.04L357.5 74.04L357.5 70.8L353.89 70.8L353.89 67.26L349.67 67.26L349.67 70.8L347.43 70.8L347.43 74.04L349.67 74.04L349.67 80C349.67 83.46 351.67 85.22 355.1 85.22C356.4 85.22 357.67 84.92 358.53 84.3Z" /></svg>