<svg xmlns="http://www.w3.org/2000/svg" viewBox="0 0 400 150" width="400" height="150">
	<style>
		tspan { white-space:pre }
	</style>
	<path id="Total Sales Per Country " fill="#000000" aria-label="Total Sales Per Day"  d="M71.8 82L76.18 82L76.18 66.66L82.23 66.66L82.23 63.1L65.76 63.1L65.76 66.66L71.8 66.66ZM89.71 82.22C94.32 82.22 97.67 79.11 97.67 74.74C97.67 70.36 94.32 67.26 89.71 67.26C85.09 67.26 81.71 70.36 81.71 74.74C81.71 79.11 85.09 82.22 89.71 82.22ZM89.71 78.76C87.6 78.76 85.98 77.25 85.98 74.74C85.98 72.23 87.6 70.71 89.71 70.71C91.81 70.71 93.4 72.23 93.4 74.74C93.4 77.25 91.81 78.76 89.71 78.76ZM108.71 78.33C108.25 78.68 107.63 78.87 107.01 78.87C105.88 78.87 105.2 78.19 105.2 76.95L105.2 71.04L108.82 71.04L108.82 67.8L105.2 67.8L105.2 64.26L100.99 64.26L100.99 67.8L98.75 67.8L98.75 71.04L100.99 71.04L100.99 77C100.99 80.46 102.99 82.22 106.42 82.22C107.71 82.22 108.98 81.92 109.85 81.3ZM118.08 67.26C115.76 67.26 113.41 67.88 111.82 69.01L113.33 71.96C114.38 71.12 115.98 70.61 117.52 70.61C119.78 70.61 120.86 71.66 120.86 73.47L117.52 73.47C113.09 73.47 111.28 75.25 111.28 77.81C111.28 80.33 113.3 82.22 116.71 82.22C118.84 82.22 120.35 81.51 121.13 80.19L121.13 82L125.08 82L125.08 73.71C125.08 69.31 122.51 67.26 118.08 67.26ZM117.76 79.38C116.27 79.38 115.38 78.68 115.38 77.63C115.38 76.65 116 75.92 117.97 75.92L120.86 75.92L120.86 77.41C120.38 78.73 119.16 79.38 117.76 79.38ZM128.88 82L133.09 82L133.09 61.97L128.88 61.97ZM151.16 82.32C156.56 82.32 159.18 79.62 159.18 76.47C159.18 69.53 148.19 71.93 148.19 68.45C148.19 67.26 149.19 66.29 151.78 66.29C153.45 66.29 155.26 66.77 157.02 67.77L158.37 64.45C156.61 63.34 154.18 62.78 151.81 62.78C146.43 62.78 143.84 65.45 143.84 68.66C143.84 75.68 154.83 73.25 154.83 76.79C154.83 77.95 153.78 78.81 151.18 78.81C148.92 78.81 146.54 78 144.95 76.84L143.46 80.14C145.14 81.43 148.16 82.32 151.16 82.32ZM167.74 67.26C165.41 67.26 163.06 67.88 161.47 69.01L162.98 71.96C164.04 71.12 165.63 70.61 167.17 70.61C169.44 70.61 170.52 71.66 170.52 73.47L167.17 73.47C162.74 73.47 160.93 75.25 160.93 77.81C160.93 80.33 162.96 82.22 166.36 82.22C168.49 82.22 170 81.51 170.79 80.19L170.79 82L174.73 82L174.73 73.71C174.73 69.31 172.16 67.26 167.74 67.26ZM167.41 79.38C165.93 79.38 165.04 78.68 165.04 77.63C165.04 76.65 165.66 75.92 167.63 75.92L170.52 75.92L170.52 77.41C170.03 78.73 168.81 79.38 167.41 79.38ZM178.53 82L182.75 82L182.75 61.97L178.53 61.97ZM200.89 74.79C200.89 70.12 197.6 67.26 193.33 67.26C188.9 67.26 185.58 70.39 185.58 74.74C185.58 79.06 188.85 82.22 193.87 82.22C196.49 82.22 198.52 81.41 199.87 79.87L197.62 77.44C196.63 78.38 195.52 78.84 193.98 78.84C191.77 78.84 190.23 77.73 189.82 75.92L200.81 75.92C200.84 75.57 200.89 75.11 200.89 74.79ZM193.36 70.44C195.25 70.44 196.63 71.63 196.92 73.47L189.77 73.47C190.06 71.61 191.44 70.44 193.36 70.44ZM208.59 82.22C212.93 82.22 215.44 80.3 215.44 77.6C215.44 71.88 206.67 74.28 206.67 71.79C206.67 71.04 207.48 70.44 209.37 70.44C210.69 70.44 212.12 70.71 213.55 71.52L214.96 68.53C213.58 67.72 211.37 67.26 209.37 67.26C205.13 67.26 202.65 69.2 202.65 71.96C202.65 77.76 211.42 75.33 211.42 77.71C211.42 78.52 210.69 79.03 208.75 79.03C206.97 79.03 205 78.46 203.7 77.63L202.3 80.65C203.65 81.54 206.13 82.22 208.59 82.22ZM234.16 63.1L225.97 63.1L225.97 82L230.35 82L230.35 76.79L234.16 76.79C239.2 76.79 242.36 74.17 242.36 69.96C242.36 65.72 239.2 63.1 234.16 63.1ZM233.91 73.22L230.35 73.22L230.35 66.66L233.91 66.66C236.59 66.66 237.94 67.88 237.94 69.96C237.94 72.01 236.59 73.22 233.91 73.22ZM259.37 74.79C259.37 70.12 256.08 67.26 251.81 67.26C247.38 67.26 244.06 70.39 244.06 74.74C244.06 79.06 247.33 82.22 252.35 82.22C254.97 82.22 257 81.41 258.35 79.87L256.11 77.44C255.11 78.38 254 78.84 252.46 78.84C250.25 78.84 248.71 77.73 248.3 75.92L259.29 75.92C259.32 75.57 259.37 75.11 259.37 74.79ZM251.84 70.44C253.73 70.44 255.11 71.63 255.4 73.47L248.25 73.47C248.55 71.61 249.92 70.44 251.84 70.44ZM266.2 69.39L266.2 67.47L262.18 67.47L262.18 82L266.39 82L266.39 75.14C266.39 72.36 267.93 71.09 270.25 71.09C270.58 71.09 270.85 71.12 271.2 71.15L271.2 67.26C268.96 67.26 267.23 67.99 266.2 69.39ZM281.76 82L290.34 82C296.52 82 300.76 78.27 300.76 72.55C300.76 66.83 296.52 63.1 290.34 63.1L281.76 63.1ZM286.13 78.41L286.13 66.69L290.13 66.69C293.88 66.69 296.34 68.93 296.34 72.55C296.34 76.17 293.88 78.41 290.13 78.41ZM309.62 67.26C307.3 67.26 304.95 67.88 303.36 69.01L304.87 71.96C305.92 71.12 307.51 70.61 309.05 70.61C311.32 70.61 312.4 71.66 312.4 73.47L309.05 73.47C304.63 73.47 302.82 75.25 302.82 77.81C302.82 80.33 304.84 82.22 308.24 82.22C310.38 82.22 311.89 81.51 312.67 80.19L312.67 82L316.61 82L316.61 73.71C316.61 69.31 314.05 67.26 309.62 67.26ZM309.3 79.38C307.81 79.38 306.92 78.68 306.92 77.63C306.92 76.65 307.54 75.92 309.51 75.92L312.4 75.92L312.4 77.41C311.92 78.73 310.7 79.38 309.3 79.38ZM330.52 67.47L326.41 77.33L322.34 67.47L317.99 67.47L324.28 82.11L324.23 82.24C323.66 83.54 323.01 84.05 321.85 84.05C321.01 84.05 320.12 83.7 319.48 83.13L317.94 86.13C318.88 86.97 320.5 87.45 321.99 87.45C324.61 87.45 326.6 86.4 328.01 82.89L334.57 67.47Z" />
</svg>